<?xml version="1.0" encoding="UTF-8" standalone="no"?>
<svg width="45px" height="25px" viewBox="0 0 45 25" version="1.1" xmlns="http://www.w3.org/2000/svg" xmlns:xlink="http://www.w3.org/1999/xlink" xmlns:sketch="http://www.bohemiancoding.com/sketch/ns">
    <!-- Generator: Sketch 3.3 (11970) - http://www.bohemiancoding.com/sketch -->
    <title>Imported Layers</title>
    <desc>Created with Sketch.</desc>
    <defs></defs>
    <g id="Categories" stroke="none" stroke-width="1" fill="none" fill-rule="evenodd" sketch:type="MSPage">
        <g id="Marketplace" sketch:type="MSArtboardGroup" transform="translate(-886.000000, -3852.000000)">
            <g id="Footer" sketch:type="MSLayerGroup" transform="translate(0.000000, 3602.000000)">
                <g id="Imported-Layers" transform="translate(886.000000, 250.000000)" sketch:type="MSShapeGroup">
                    <path d="M0.297307692,0.179924242 L44.77,0.179924242 L44.77,24.7261364 L0.297307692,24.7261364 L0.297307692,0.179924242 Z" id="Fill-1" fill="#F1F1F2"></path>
                    <path d="M8.28115385,9.42272727 L7.61230769,7.81628788 L6.94653846,9.42272727 L8.28115385,9.42272727 Z M23.0280769,8.78257576 C22.8930769,8.86325758 22.7342308,8.86590909 22.5438462,8.86590909 L21.3557692,8.86590909 L21.3557692,7.97045455 L22.56,7.97045455 C22.7303846,7.97045455 22.9084615,7.97840909 23.0234615,8.04318182 C23.1507692,8.10227273 23.2292308,8.22727273 23.2292308,8.39962121 C23.2292308,8.57575758 23.1542308,8.71780303 23.0280769,8.78257576 L23.0280769,8.78257576 Z M31.5030769,9.42272727 L30.8257692,7.81628788 L30.1538462,9.42272727 L31.5030769,9.42272727 L31.5030769,9.42272727 Z M15.7046154,11.1609848 L14.7015385,11.1609848 L14.6980769,8.00492424 L13.2796154,11.1609848 L12.4207692,11.1609848 L10.9992308,8.00227273 L10.9992308,11.1609848 L9.01038462,11.1609848 L8.63461538,10.2621212 L6.59807692,10.2621212 L6.21846154,11.1609848 L5.15615385,11.1609848 L6.90769231,7.13143939 L8.36038462,7.13143939 L10.0242308,10.9465909 L10.0242308,7.13143939 L11.62,7.13143939 L12.9,9.86515152 L14.0753846,7.13143939 L15.7042308,7.13143939 L15.7042308,11.1609848 L15.7046154,11.1609848 L15.7046154,11.1609848 Z M19.6996154,11.1609848 L16.4326923,11.1609848 L16.4326923,7.13143939 L19.6996154,7.13143939 L19.6996154,7.97045455 L17.4111538,7.97045455 L17.4111538,8.6969697 L19.6453846,8.6969697 L19.6453846,9.52310606 L17.4111538,9.52310606 L17.4111538,10.3276515 L19.6996154,10.3276515 L19.6996154,11.1609848 L19.6996154,11.1609848 Z M24.3061538,8.21666667 C24.3061538,8.8594697 23.8711538,9.19128788 23.6169231,9.29128788 C23.8311538,9.37121212 24.0142308,9.51287879 24.1007692,9.63030303 C24.2388462,9.83106061 24.2630769,10.0098485 24.2630769,10.369697 L24.2630769,11.1609848 L23.2765385,11.1609848 L23.2726923,10.6534091 C23.2726923,10.4102273 23.2961538,10.0617424 23.1184615,9.86856061 C22.9757692,9.72613636 22.7573077,9.69583333 22.4057692,9.69583333 L21.3557692,9.69583333 L21.3557692,11.1609848 L20.3776923,11.1609848 L20.3776923,7.13143939 L22.6273077,7.13143939 C23.1273077,7.13143939 23.4953846,7.14469697 23.8111538,7.32462121 C24.1207692,7.50454545 24.3061538,7.76742424 24.3061538,8.21666667 L24.3061538,8.21666667 Z M24.8738462,7.13143939 L25.8715385,7.13143939 L25.8715385,11.1606061 L24.8738462,11.1606061 L24.8738462,7.13143939 Z M37.4480769,11.1609848 L36.0626923,11.1609848 L34.2084615,8.13712121 L34.2084615,11.1609848 L32.2173077,11.1609848 L31.8365385,10.2621212 L29.8046154,10.2621212 L29.4353846,11.1609848 L28.2911538,11.1609848 C27.8157692,11.1609848 27.2138462,11.0575758 26.8730769,10.7159091 C26.5296154,10.3731061 26.3503846,9.90984848 26.3503846,9.17727273 C26.3503846,8.57954545 26.4576923,8.03333333 26.8780769,7.60151515 C27.1938462,7.27992424 27.6892308,7.13143939 28.3630769,7.13143939 L29.31,7.13143939 L29.31,7.99507576 L28.3830769,7.99507576 C28.0261538,7.99507576 27.8242308,8.04734848 27.63,8.23371212 C27.4634615,8.40340909 27.3492308,8.72424242 27.3492308,9.14659091 C27.3492308,9.57840909 27.4361538,9.88939394 27.6176923,10.0931818 C27.7692308,10.2522727 28.0423077,10.3003788 28.3,10.3003788 L28.7388462,10.3003788 L30.1176923,7.13143939 L31.5826923,7.13143939 L33.2384615,10.9435606 L33.2384615,7.13143939 L34.7273077,7.13143939 L36.4465385,9.93863636 L36.4465385,7.13143939 L37.4480769,7.13143939 L37.4480769,11.1609848 L37.4480769,11.1609848 Z M5.145,11.9530303 L6.81615385,11.9530303 L7.19269231,11.0575758 L8.03653846,11.0575758 L8.41192308,11.9530303 L11.6996154,11.9530303 L11.6996154,11.2685606 L11.9930769,11.955303 L13.7,11.955303 L13.9934615,11.2583333 L13.9934615,11.9530303 L22.1642308,11.9530303 L22.1603846,10.4837121 L22.3184615,10.4837121 C22.4292308,10.4871212 22.4611538,10.4977273 22.4611538,10.6780303 L22.4611538,11.9530303 L26.6873077,11.9530303 L26.6873077,11.6109848 C27.0284615,11.7905303 27.5584615,11.9530303 28.2561538,11.9530303 L30.0338462,11.9530303 L30.4146154,11.0575758 L31.2576923,11.0575758 L31.6303846,11.9530303 L35.0557692,11.9530303 L35.0557692,11.1026515 L35.5746154,11.9530303 L38.3203846,11.9530303 L38.3203846,6.33295455 L35.6030769,6.33295455 L35.6030769,6.99659091 L35.2226923,6.33295455 L32.4346154,6.33295455 L32.4346154,6.99659091 L32.0853846,6.33295455 L28.3192308,6.33295455 C27.6892308,6.33295455 27.135,6.41969697 26.6873077,6.66098485 L26.6873077,6.33295455 L24.0884615,6.33295455 L24.0884615,6.66098485 C23.8042308,6.41174242 23.4153846,6.33295455 22.9838462,6.33295455 L13.4896154,6.33295455 L12.8530769,7.7844697 L12.1984615,6.33295455 L9.20807692,6.33295455 L9.20807692,6.99659091 L8.87961538,6.33295455 L6.32923077,6.33295455 L5.14461538,9.00454545 L5.14461538,11.9530303 L5.145,11.9530303 L5.145,11.9530303 Z" id="Fill-2" fill="#1DACE3"></path>
                    <path d="M39.9396154,14.9246212 L38.1573077,14.9246212 C37.9792308,14.9246212 37.8611538,14.9314394 37.7619231,14.9973485 C37.6584615,15.0632576 37.6188462,15.1598485 37.6188462,15.2875 C37.6188462,15.4401515 37.7057692,15.5439394 37.8326923,15.5882576 C37.9357692,15.6238636 38.0465385,15.6340909 38.2096154,15.6340909 L38.7396154,15.6477273 C39.2742308,15.6606061 39.6315385,15.7515152 39.8488462,15.9719697 C39.8888462,16.0030303 39.9126923,16.0375 39.9396154,16.0723485 L39.9396154,14.9246212 Z M39.9396154,17.5825758 C39.7023077,17.9246212 39.2392308,18.0977273 38.6123077,18.0977273 L36.7238462,18.0977273 L36.7238462,17.2337121 L38.6046154,17.2337121 C38.7915385,17.2337121 38.9223077,17.2094697 39.0007692,17.1333333 C39.0688462,17.0715909 39.1161538,16.9814394 39.1161538,16.8704545 C39.1161538,16.7537879 39.0688462,16.6602273 38.9969231,16.6041667 C38.9261538,16.542803 38.8230769,16.5147727 38.6523077,16.5147727 C37.7342308,16.4840909 36.5884615,16.542803 36.5884615,15.2670455 C36.5884615,14.6829545 36.9653846,14.0670455 37.9911538,14.0670455 L39.9396154,14.0670455 L39.9396154,13.2659091 L38.1296154,13.2659091 C37.5838462,13.2659091 37.1869231,13.3943182 36.9057692,13.594697 L36.9057692,13.2659091 L34.2280769,13.2659091 C33.8007692,13.2659091 33.2976923,13.369697 33.0603846,13.594697 L33.0603846,13.2659091 L28.2792308,13.2659091 L28.2792308,13.594697 C27.8988462,13.3246212 27.2573077,13.2659091 26.9611538,13.2659091 L23.8073077,13.2659091 L23.8073077,13.594697 C23.5061538,13.3079545 22.8369231,13.2659091 22.4292308,13.2659091 L18.8996154,13.2659091 L18.0923077,14.1261364 L17.3357692,13.2659091 L12.0646154,13.2659091 L12.0646154,18.8890152 L17.2373077,18.8890152 L18.0688462,18.0155303 L18.8526923,18.8890152 L22.0415385,18.8916667 L22.0415385,17.569697 L22.3546154,17.569697 C22.7773077,17.5753788 23.2765385,17.5590909 23.7165385,17.3712121 L23.7165385,18.8890152 L26.3469231,18.8890152 L26.3469231,17.4238636 L26.4734615,17.4238636 C26.6353846,17.4238636 26.6511538,17.430303 26.6511538,17.5893939 L26.6511538,18.8890152 L34.6407692,18.8890152 C35.1473077,18.8890152 35.6780769,18.7613636 35.9715385,18.5295455 L35.9715385,18.8890152 L38.5053846,18.8890152 C39.0323077,18.8890152 39.5480769,18.8166667 39.9396154,18.6299242 L39.9396154,17.5825758 L39.9396154,17.5825758 Z M36.0388462,15.9719697 C36.2288462,16.1666667 36.3315385,16.4113636 36.3315385,16.8261364 C36.3315385,17.692803 35.7815385,18.0977273 34.7946154,18.0977273 L32.89,18.0977273 L32.89,17.2337121 L34.7873077,17.2337121 C34.9726923,17.2337121 35.1046154,17.2094697 35.1869231,17.1333333 C35.2534615,17.0715909 35.3023077,16.9814394 35.3023077,16.8704545 C35.3023077,16.7537879 35.2503846,16.6602273 35.1830769,16.6041667 C35.1076923,16.542803 35.0046154,16.5147727 34.8346154,16.5147727 C33.92,16.4840909 32.775,16.542803 32.775,15.2670455 C32.775,14.6829545 33.1476923,14.0670455 34.1726923,14.0670455 L36.1330769,14.0670455 L36.1330769,14.9253788 L34.3396154,14.9253788 C34.1619231,14.9253788 34.0461538,14.9318182 33.9473077,14.9981061 C33.8403846,15.0632576 33.8007692,15.1606061 33.8007692,15.2878788 C33.8007692,15.4405303 33.8911538,15.5439394 34.0142308,15.5882576 C34.1180769,15.6238636 34.2280769,15.6340909 34.3953846,15.6340909 L34.9215385,15.6477273 C35.4526923,15.6606061 35.8169231,15.7515152 36.0388462,15.9719697 L36.0388462,15.9719697 Z M27.2134615,15.7234848 C27.0826923,15.7996212 26.9211538,15.8064394 26.7307692,15.8064394 L25.5430769,15.8064394 L25.5430769,14.9011364 L26.7469231,14.9011364 C26.9211538,14.9011364 27.0957692,14.9049242 27.2134615,14.9738636 C27.3403846,15.0390152 27.4161538,15.1640152 27.4161538,15.3367424 C27.4161538,15.5087121 27.3403846,15.6477273 27.2134615,15.7234848 L27.2134615,15.7234848 Z M27.8046154,16.2246212 C28.0223077,16.3037879 28.2003846,16.4458333 28.2842308,16.5632576 C28.4211538,16.7602273 28.4415385,16.9439394 28.4457692,17.2984848 L28.4457692,18.0977273 L27.4638462,18.0977273 L27.4638462,17.5931818 C27.4638462,17.3511364 27.4873077,16.9916667 27.3053846,16.8049242 C27.1626923,16.6602273 26.9446154,16.6257576 26.5880769,16.6257576 L25.5430769,16.6257576 L25.5430769,18.0977273 L24.56,18.0977273 L24.56,14.0670455 L26.8180769,14.0670455 C27.3130769,14.0670455 27.6734615,14.0886364 27.9953846,14.257197 C28.3030769,14.4409091 28.4976923,14.6931818 28.4976923,15.1522727 C28.4976923,15.7962121 28.0619231,16.1242424 27.8046154,16.2246212 L27.8046154,16.2246212 Z M29.0396154,14.0670455 L32.3042308,14.0670455 L32.3042308,14.9011364 L30.0142308,14.9011364 L30.0142308,15.6340909 L32.2476923,15.6340909 L32.2476923,16.4560606 L30.0142308,16.4560606 L30.0142308,17.2579545 L32.3042308,17.2613636 L32.3042308,18.0977273 L29.0396154,18.0977273 L29.0396154,14.0670455 L29.0396154,14.0670455 Z M22.4415385,15.9276515 L21.1776923,15.9276515 L21.1776923,14.9011364 L22.4530769,14.9011364 C22.8061538,14.9011364 23.0515385,15.0424242 23.0515385,15.3950758 C23.0515385,15.7435606 22.8173077,15.9276515 22.4415385,15.9276515 L22.4415385,15.9276515 Z M20.2034615,17.7314394 L18.7023077,16.0897727 L20.2034615,14.5 L20.2034615,17.7314394 L20.2034615,17.7314394 Z M16.3265385,17.2579545 L13.9215385,17.2579545 L13.9215385,16.4560606 L16.0688462,16.4560606 L16.0688462,15.6340909 L13.9215385,15.6340909 L13.9215385,14.9011364 L16.3734615,14.9011364 L17.4430769,16.0757576 L16.3265385,17.2579545 L16.3265385,17.2579545 Z M24.1007692,15.3950758 C24.1007692,16.5147727 23.2526923,16.7458333 22.3980769,16.7458333 L21.1776923,16.7458333 L21.1776923,18.0977273 L19.2769231,18.0977273 L18.0723077,16.7636364 L16.8215385,18.0977273 L12.9473077,18.0977273 L12.9473077,14.0670455 L16.8811538,14.0670455 L18.0842308,15.3886364 L19.3276923,14.0670455 L22.4530769,14.0670455 C23.2292308,14.0670455 24.1007692,14.2784091 24.1007692,15.3950758 L24.1007692,15.3950758 Z" id="Fill-3" fill="#1DACE3"></path>
                </g>
            </g>
        </g>
    </g>
</svg>