<?xml version="1.0" encoding="UTF-8" standalone="no"?>
<svg width="99px" height="27px" viewBox="0 0 99 27" version="1.1" xmlns="http://www.w3.org/2000/svg" xmlns:xlink="http://www.w3.org/1999/xlink" xmlns:sketch="http://www.bohemiancoding.com/sketch/ns">
    <!-- Generator: Sketch 3.3 (11970) - http://www.bohemiancoding.com/sketch -->
    <title>Group</title>
    <desc>Created with Sketch.</desc>
    <defs></defs>
    <g id="Categories" stroke="none" stroke-width="1" fill="none" fill-rule="evenodd" sketch:type="MSPage">
        <g id="Marketplace" sketch:type="MSArtboardGroup" transform="translate(-988.000000, -3441.000000)" fill="#FFFFFF">
            <g id="Imported-Layers-3" sketch:type="MSLayerGroup" transform="translate(953.000000, 3430.000000)">
                <g id="Group" transform="translate(35.000000, 11.000000)" sketch:type="MSShapeGroup">
                    <path d="M16.399102,12.9522059 C16.3733068,10.0740546 18.7612033,8.67436975 18.8707012,8.6092437 C17.5177704,6.64180672 15.4220438,6.37342437 14.6855651,6.35189076 C12.9251758,6.16701681 11.2174298,7.40283613 10.3209157,7.40283613 C9.40650299,7.40283613 8.02567131,6.3697479 6.53692104,6.40021008 C4.62176067,6.42962185 2.83031188,7.53571429 1.84798938,9.25367647 C-0.180353904,12.7563025 1.33208582,17.9038866 3.27514709,20.7347689 C4.24694094,22.1223739 5.38245521,23.6701681 6.86909976,23.615021 C8.32363194,23.5567227 8.86638354,22.6906513 10.6215085,22.6906513 C12.3608405,22.6906513 12.8709533,23.615021 14.3865516,23.5803571 C15.9474231,23.5567227 16.9302721,22.1875 17.8678478,20.7883403 C18.9912541,19.2006303 19.4418801,17.6334034 19.4597788,17.5535714 C19.4239814,17.5409664 16.4301615,16.4007353 16.399102,12.9522059" id="Fill-4"></path>
                    <path d="M13.5358372,4.4894958 C14.317589,3.51365546 14.8529706,2.18592437 14.7045167,0.838235294 C13.5726875,0.888655462 12.1565848,1.6197479 11.3411413,2.57457983 C10.6199292,3.41544118 9.9755762,4.79411765 10.1424552,6.09033613 C11.413789,6.18487395 12.7193409,5.45010504 13.5358372,4.4894958" id="Fill-5"></path>
                    <path d="M37.4632338,23.4159664 L35.4312055,23.4159664 L34.3178014,19.9259454 L30.4485247,19.9259454 L29.3877638,23.4159664 L27.4089051,23.4159664 L31.2434373,11.5341387 L33.6113294,11.5341387 L37.4632338,23.4159664 L37.4632338,23.4159664 Z M33.9819376,18.4616597 L32.9753992,15.3597689 C32.8685335,15.0420168 32.6684893,14.2956933 32.3747401,13.1207983 L32.3389427,13.1207983 C32.2210219,13.6260504 32.0320327,14.3723739 31.7735545,15.3597689 L30.783862,18.4616597 L33.9819376,18.4616597 L33.9819376,18.4616597 Z" id="Fill-6"></path>
                    <path d="M47.3059367,19.0267857 C47.3059367,20.4837185 46.9095333,21.6355042 46.1156735,22.4816176 C45.40499,23.2337185 44.5216368,23.6097689 43.468246,23.6097689 C42.3311524,23.6097689 41.5130768,23.2053571 41.0161248,22.3944328 L41.0161248,26.8897059 L39.1083344,26.8897059 L39.1083344,17.664916 C39.1083344,16.7494748 39.0841186,15.8114496 39.0372661,14.8487395 L40.715532,14.8487395 L40.8223977,16.2069328 L40.8581951,16.2069328 C41.4941252,15.1832983 42.4601283,14.6717437 43.7556779,14.6717437 C44.7690599,14.6717437 45.6145101,15.0709034 46.2909754,15.8697479 C46.9669144,16.6706933 47.3059367,17.7226891 47.3059367,19.0267857 L47.3059367,19.0267857 Z M45.362349,19.0966387 C45.362349,18.2631303 45.1738863,17.575105 44.7964344,17.0336134 C44.3837116,16.4705882 43.8299049,16.1880252 43.1355408,16.1880252 C42.6649104,16.1880252 42.236921,16.3445378 41.8547313,16.6554622 C41.472015,16.967437 41.2209069,17.3755252 41.1040389,17.8813025 C41.0450785,18.1165966 41.0150719,18.3082983 41.0150719,18.460084 L41.0150719,19.8902311 C41.0150719,20.5115546 41.2072196,21.0372899 41.5899359,21.4684874 C41.9731785,21.8965336 42.4706569,22.1118697 43.0823712,22.1118697 C43.8014775,22.1118697 44.361075,21.8345588 44.760637,21.2836134 C45.1617784,20.7305672 45.362349,20.0015756 45.362349,19.0966387 L45.362349,19.0966387 Z" id="Fill-7"></path>
                    <path d="M57.1833842,19.0267857 C57.1833842,20.4837185 56.7869808,21.6355042 55.993121,22.4816176 C55.2819111,23.2337185 54.3990843,23.6097689 53.345167,23.6097689 C52.2080734,23.6097689 51.3899978,23.2053571 50.8925194,22.3944328 L50.8925194,26.8897059 L48.984729,26.8897059 L48.984729,17.664916 C48.984729,16.7494748 48.9610396,15.8114496 48.9141871,14.8487395 L50.592453,14.8487395 L50.6987923,16.2069328 L50.7345897,16.2069328 C51.3699934,15.1832983 52.33547,14.6717437 53.632599,14.6717437 C54.6449281,14.6717437 55.4909047,15.0709034 56.1689493,15.8697479 C56.8438354,16.6706933 57.1833842,17.7226891 57.1833842,19.0267857 L57.1833842,19.0267857 Z M55.2387436,19.0966387 C55.2387436,18.2631303 55.0502809,17.575105 54.672829,17.0336134 C54.2601062,16.4705882 53.7078788,16.1880252 53.0129883,16.1880252 C52.5418315,16.1880252 52.1143685,16.3445378 51.7311259,16.6554622 C51.3478832,16.967437 51.0983543,17.3755252 50.98096,17.8813025 C50.922526,18.1165966 50.8909401,18.3082983 50.8909401,18.460084 L50.8909401,19.8902311 C50.8909401,20.5115546 51.0830878,21.0372899 51.4652776,21.4684874 C51.8479938,21.8954832 52.3454722,22.1118697 52.9598186,22.1118697 C53.678925,22.1118697 54.2385225,21.8345588 54.6375581,21.2836134 C55.038173,20.7305672 55.2387436,20.0015756 55.2387436,19.0966387 L55.2387436,19.0966387 Z" id="Fill-8"></path>
                    <path d="M68.226879,20.0835084 C68.226879,21.095063 67.8731166,21.917542 67.1682238,22.5519958 C66.3933156,23.2452731 65.3114975,23.592437 63.9243486,23.592437 C62.6424862,23.592437 61.6154169,23.3455882 60.8399823,22.8518908 L61.2816589,21.2652311 C62.1181597,21.7594538 63.0373103,22.0063025 64.038058,22.0063025 C64.7571643,22.0063025 65.3167618,21.8440126 65.7157974,21.5215336 C66.1164123,21.1980042 66.3180358,20.7662815 66.3180358,20.2263655 C66.3180358,19.7436975 66.1511568,19.3392857 65.8226631,19.0094538 C65.4920637,18.6817227 64.9461535,18.3744748 64.1796682,18.0940126 C62.0944702,17.3177521 61.0510816,16.1827731 61.0510816,14.6901261 C61.0510816,13.7153361 61.4195842,12.9170168 62.1544835,12.2930672 C62.8904357,11.6696429 63.8659146,11.3581933 65.0798673,11.3581933 C66.1632648,11.3581933 67.066096,11.5467437 67.7830967,11.9222689 L67.3040434,13.4742647 C66.6291573,13.1097689 65.8679363,12.927521 65.0156426,12.927521 C64.3428622,12.927521 63.8143243,13.0929622 63.4368724,13.4217437 C63.1194338,13.7153361 62.9578191,14.0735294 62.9578191,14.4978992 C62.9578191,14.9669118 63.1410175,15.3560924 63.5068879,15.6612395 C63.8238,15.9427521 64.4012962,16.2489496 65.2377969,16.5777311 C66.2632869,16.990021 67.0166114,17.4705882 67.4988233,18.022584 C67.9847202,18.5745798 68.226879,19.262605 68.226879,20.0835084" id="Fill-9"></path>
                    <path d="M74.5514355,16.2767857 L72.4478124,16.2767857 L72.4478124,20.4369748 C72.4478124,21.4947479 72.8189471,22.022584 73.561743,22.022584 C73.9023446,22.022584 74.1855651,21.9942227 74.4092988,21.9338235 L74.4614156,23.3797269 C74.0860695,23.519958 73.5912232,23.5903361 72.9784561,23.5903361 C72.2240787,23.5903361 71.636054,23.3602941 71.2106967,22.9017857 C70.7869188,22.4432773 70.5742402,21.6738445 70.5742402,20.5919118 L70.5742402,16.2731092 L69.321858,16.2731092 L69.321858,14.845063 L70.5742402,14.845063 L70.5742402,13.2762605 L72.4478124,12.7116597 L72.4478124,14.845063 L74.5514355,14.845063 L74.5514355,16.2767857" id="Fill-10"></path>
                    <path d="M84.0219509,19.0619748 C84.0219509,20.3786765 83.644499,21.4595588 82.8901217,22.3051471 C82.1020526,23.1754202 81.0528733,23.6097689 79.7457421,23.6097689 C78.4838841,23.6097689 77.4805043,23.1927521 76.7324441,22.3592437 C75.984384,21.5246849 75.6100907,20.4732143 75.6100907,19.2048319 C75.6100907,17.8765756 75.9970184,16.7893908 76.7671887,15.9438025 C77.5389383,15.0976891 78.5791683,14.6743697 79.8862995,14.6743697 C81.1465782,14.6743697 82.1583809,15.092437 82.9253926,15.9264706 C83.6576598,16.7352941 84.0219509,17.779937 84.0219509,19.0619748 L84.0219509,19.0619748 Z M82.0430922,19.1055672 C82.0430922,18.3209034 81.8735811,17.647584 81.5329794,17.0840336 C81.1323645,16.4038866 80.5596063,16.0640756 79.8183897,16.0640756 C79.0545366,16.0640756 78.4670383,16.4038866 78.0685291,17.0840336 C77.7258217,17.647584 77.5563106,18.3329832 77.5563106,19.1412815 C77.5563106,19.9264706 77.7258217,20.6018908 78.0685291,21.1633403 C78.4812519,21.8440126 79.0561159,22.1843487 79.8025968,22.1843487 C80.5311789,22.1843487 81.1028843,21.8361345 81.5171865,21.1465336 C81.8677903,20.5703782 82.0430922,19.8918067 82.0430922,19.1055672 L82.0430922,19.1055672 Z" id="Fill-11"></path>
                    <path d="M90.2264809,16.522584 C90.0374917,16.4879202 89.8353417,16.4705882 89.6247689,16.4705882 C88.9535678,16.4705882 88.4345056,16.7216387 88.0691617,17.2289916 C87.7517231,17.6754202 87.5927405,18.2394958 87.5927405,18.9206933 L87.5927405,23.4159664 L85.6849502,23.4159664 L85.6849502,17.5462185 C85.6849502,16.5603992 85.6665251,15.6596639 85.6302013,14.8492647 L87.2916213,14.8492647 L87.3616368,16.4884454 L87.4148065,16.4884454 C87.61643,15.9254202 87.9338686,15.4711134 88.3681752,15.1313025 C88.7935324,14.8240546 89.2525813,14.6717437 89.7474276,14.6717437 C89.9237823,14.6717437 90.0827649,14.6848739 90.2243751,14.7064076 L90.2264809,16.522584" id="Fill-12"></path>
                    <path d="M98.7594205,18.7268908 C98.7594205,19.0677521 98.7367839,19.3555672 98.689405,19.5903361 L92.9660341,19.5903361 C92.9870914,20.4369748 93.2650476,21.0845588 93.7962177,21.5309874 C94.278956,21.9296218 94.9027781,22.1292017 95.6682106,22.1292017 C96.5162929,22.1292017 97.2885689,21.9957983 97.9845123,21.7247899 L98.2829993,23.0456933 C97.4707144,23.3986345 96.5110285,23.5745798 95.404468,23.5745798 C94.0725946,23.5745798 93.0271002,23.1843487 92.2669321,22.4038866 C91.5083433,21.6223739 91.1272064,20.5719538 91.1272064,19.2568277 C91.1272064,17.9663866 91.4804424,16.8907563 92.1884937,16.032563 C92.9291838,15.1160714 93.9309843,14.6586134 95.191263,14.6586134 C96.4283787,14.6586134 97.365428,15.1160714 98.0018845,16.032563 C98.5062066,16.7578782 98.7594205,17.6580882 98.7594205,18.7268908 L98.7594205,18.7268908 Z M96.9400708,18.2331933 C96.9532316,17.6685924 96.8279407,17.1817227 96.5694625,16.7704832 C96.2388631,16.2394958 95.7313824,15.9753151 95.0496527,15.9753151 C94.4258306,15.9753151 93.9178235,16.2331933 93.5308958,16.7510504 C93.2134572,17.1628151 93.024468,17.6580882 92.9660341,18.2316176 L96.9400708,18.2331933 L96.9400708,18.2331933 Z" id="Fill-13"></path>
                    <path d="M33.0622606,7.28151261 L32.0625658,7.28151261 L31.5156027,5.56617647 L29.6141296,5.56617647 L29.0924353,7.28151261 L28.1195886,7.28151261 L30.0042159,1.44117647 L31.1676311,1.44117647 L33.0622606,7.28151261 L33.0622606,7.28151261 Z M31.3513559,4.84663866 L30.8565096,3.32142857 C30.8043928,3.16544118 30.7085822,2.8019958 30.5611812,2.22163866 L30.5432825,2.22163866 C30.4816899,2.47268908 30.395355,2.83665966 30.2647998,3.32142857 L29.7789029,4.84663866 L31.3513559,4.84663866 L31.3513559,4.84663866 Z" id="Fill-14"></path>
                    <path d="M37.7748817,3.07037815 L36.1766335,7.28151261 L35.2648529,7.28151261 L33.7181951,3.07037815 L34.7257863,3.07037815 L35.4469985,5.29726891 C35.5686043,5.66964286 35.6728379,6.02521008 35.7507498,6.36239496 L35.776545,6.36239496 C35.8460341,6.05987395 35.9502676,5.70483193 36.07977,5.29726891 L36.7920327,3.07037815 L37.7748817,3.07037815" id="Fill-15"></path>
                    <path d="M41.177213,7.28151261 L41.1071975,6.7967437 L41.0819288,6.7967437 C40.7955497,7.18697479 40.3780889,7.37710084 39.8484981,7.37710084 C39.0930679,7.37710084 38.5540013,6.8487395 38.5540013,6.13760504 C38.5540013,5.09821429 39.457359,4.56039916 41.0208626,4.56039916 L41.0208626,4.48319328 C41.0208626,3.92857143 40.7255342,3.6512605 40.1438266,3.6512605 C39.7263658,3.6512605 39.3615483,3.7552521 39.0414775,3.96323529 L38.8503827,3.34821429 C39.2415218,3.10556723 39.7274187,2.9842437 40.3012298,2.9842437 C41.4035789,2.9842437 41.9605441,3.56460084 41.9605441,4.72584034 L41.9605441,6.27731092 C41.9605441,6.70220588 41.9784428,7.03098739 42.0210838,7.28256303 L41.177213,7.28151261 L41.177213,7.28151261 Z M41.0466578,5.18382353 C40.0043221,5.18382353 39.4831542,5.43592437 39.4831542,6.03361345 C39.4831542,6.47531513 39.7526875,6.69117647 40.1259279,6.69117647 C40.6034019,6.69117647 41.0466578,6.3282563 41.0466578,5.83403361 L41.0466578,5.18382353 L41.0466578,5.18382353 Z" id="Fill-16"></path>
                    <path d="M44.0494271,2.37710084 C43.7367264,2.37710084 43.4935147,2.13392857 43.4935147,1.81355042 C43.4935147,1.49317227 43.7451493,1.25892857 44.0673258,1.25892857 C44.3884495,1.25892857 44.648507,1.49317227 44.6400841,1.81355042 C44.6400841,2.15178571 44.3973988,2.37710084 44.0494271,2.37710084 L44.0494271,2.37710084 Z M43.5982747,3.07037815 L44.5358505,3.07037815 L44.5358505,7.28151261 L43.5982747,7.28151261 L43.5982747,3.07037815 Z" id="Fill-17"></path>
                    <path d="M46.2025348,1.13813025 L47.1401106,1.13813025 L47.1401106,7.28151261 L46.2025348,7.28151261 L46.2025348,1.13813025 Z" id="Fill-18"></path>
                    <path d="M51.1262553,7.28151261 L51.0562398,6.7967437 L51.030971,6.7967437 C50.7440655,7.18697479 50.3271312,7.37710084 49.7975404,7.37710084 C49.0421102,7.37710084 48.50357,6.8487395 48.50357,6.13760504 C48.50357,5.09821429 49.4064012,4.56039916 50.9693785,4.56039916 L50.9693785,4.48319328 C50.9693785,3.92857143 50.67405,3.6512605 50.0928688,3.6512605 C49.6759345,3.6512605 49.3105906,3.7552521 48.9899934,3.96323529 L48.7988985,3.34716387 C49.1900376,3.10451681 49.6759345,2.98319328 50.2497456,2.98319328 C51.3515682,2.98319328 51.9090599,3.56355042 51.9090599,4.72478992 L51.9090599,6.2762605 C51.9090599,6.70115546 51.9274851,7.03046218 51.9685468,7.28151261 L51.1262553,7.28151261 L51.1262553,7.28151261 Z M50.9957001,5.18382353 C49.9533643,5.18382353 49.4321964,5.43592437 49.4321964,6.03361345 C49.4321964,6.47531513 49.7017297,6.69117647 50.0749701,6.69117647 C50.5529706,6.69117647 50.9957001,6.3282563 50.9957001,5.83403361 L50.9957001,5.18382353 L50.9957001,5.18382353 Z" id="Fill-19"></path>
                    <path d="M55.7083212,7.37710084 C55.1097678,7.37710084 54.6675647,7.125 54.3806591,6.63130252 L54.362234,6.63130252 L54.3090644,7.28151261 L53.5104667,7.28151261 C53.5357355,6.94432773 53.5441584,6.56197479 53.5441584,6.14653361 L53.5441584,1.13813025 L54.4838399,1.13813025 L54.4838399,3.68697479 L54.5012121,3.68697479 C54.7791683,3.21901261 55.2303207,2.98529412 55.8472993,2.98529412 C56.8638399,2.98529412 57.5761026,3.85189076 57.5761026,5.11607143 C57.5761026,6.42384454 56.784875,7.37710084 55.7083212,7.37710084 L55.7083212,7.37710084 Z M55.5177527,3.71953782 C54.9786861,3.71953782 54.4838399,4.1875 54.4838399,4.83771008 L54.4838399,5.57405462 C54.4838399,6.15441176 54.9276222,6.63130252 55.5009069,6.63130252 C56.2036939,6.63130252 56.6222075,6.05987395 56.6222075,5.15021008 C56.621681,4.30094538 56.1863216,3.71953782 55.5177527,3.71953782 L55.5177527,3.71953782 Z" id="Fill-20"></path>
                    <path d="M58.9637779,1.13813025 L59.9008273,1.13813025 L59.9008273,7.28151261 L58.9637779,7.28151261 L58.9637779,1.13813025 Z" id="Fill-21"></path>
                    <path d="M65.0061668,5.4012605 L62.1902809,5.4012605 C62.2097589,6.1980042 62.7377704,6.64863445 63.5189958,6.64863445 C63.9364565,6.64863445 64.3186463,6.57878151 64.6566158,6.44905462 L64.8029639,7.09926471 C64.4034019,7.27258403 63.9348772,7.3592437 63.3879142,7.3592437 C62.0670958,7.3592437 61.2858704,6.52678571 61.2858704,5.23686975 C61.2858704,3.94590336 62.0855209,2.97531513 63.2831542,2.97531513 C64.3586552,2.97531513 65.0377527,3.77258403 65.0377527,4.97689076 C65.0414377,5.14128151 65.0324884,5.28886555 65.0061668,5.4012605 L65.0061668,5.4012605 Z M64.146503,4.7342437 C64.146503,4.08403361 63.8159036,3.625 63.2162973,3.625 C62.6772307,3.625 62.2534528,4.09296218 62.1902809,4.7342437 L64.146503,4.7342437 L64.146503,4.7342437 Z" id="Fill-22"></path>
                    <path d="M70.6905817,7.37710084 C69.4571511,7.37710084 68.6575006,6.45798319 68.6575006,5.21113445 C68.6575006,3.9112395 69.4739969,2.9842437 70.7616501,2.9842437 C71.9750763,2.9842437 72.793152,3.8592437 72.793152,5.14233193 C72.793152,6.45798319 71.9508604,7.37710084 70.6905817,7.37710084 L70.6905817,7.37710084 Z M70.7263791,3.66754202 C70.0493873,3.66754202 69.6145543,4.29989496 69.6145543,5.18382353 C69.6145543,6.05147059 70.0578102,6.68329832 70.7174298,6.68329832 C71.3775758,6.68329832 71.8197788,6.00735294 71.8197788,5.1664916 C71.8197788,4.30882353 71.3865251,3.66754202 70.7263791,3.66754202 L70.7263791,3.66754202 Z" id="Fill-23"></path>
                    <path d="M77.8358461,7.28151261 L76.8993232,7.28151261 L76.8993232,4.86344538 C76.8993232,4.11922269 76.6124176,3.74579832 76.0480823,3.74579832 C75.4921699,3.74579832 75.1094537,4.22216387 75.1094537,4.77678571 L75.1094537,7.28151261 L74.1724043,7.28151261 L74.1724043,4.27415966 C74.1724043,3.90178571 74.1618757,3.50315126 74.1376598,3.06985294 L74.9625791,3.06985294 L75.0062729,3.71953782 L75.0325946,3.71953782 C75.2821234,3.26995798 75.7964477,2.98319328 76.3697324,2.98319328 C77.2541385,2.98319328 77.8358461,3.65913866 77.8358461,4.75892857 L77.8358461,7.28151261" id="Fill-24"></path>
                    <path d="M83.9719398,3.77258403 L82.9401327,3.77258403 L82.9401327,5.81722689 C82.9401327,6.33771008 83.1217518,6.59768908 83.4860429,6.59768908 C83.6513426,6.59768908 83.7913736,6.57983193 83.9029772,6.55409664 L83.9292988,7.26470588 C83.7466269,7.33455882 83.5028887,7.36922269 83.2001902,7.36922269 C82.4610794,7.36922269 82.0204557,6.96218487 82.0204557,5.89548319 L82.0204557,3.77258403 L81.4055828,3.77258403 L81.4055828,3.07037815 L82.0204557,3.07037815 L82.0204557,2.29936975 L82.9401327,2.02153361 L82.9401327,3.06985294 L83.9719398,3.06985294 L83.9719398,3.77258403" id="Fill-25"></path>
                    <path d="M88.9388277,7.28151261 L88.0001991,7.28151261 L88.0001991,4.88130252 C88.0001991,4.12762605 87.71382,3.74684874 87.1489582,3.74684874 C86.6630613,3.74684874 86.2119089,4.07615546 86.2119089,4.74264706 L86.2119089,7.28151261 L85.2732802,7.28151261 L85.2732802,1.13813025 L86.2119089,1.13813025 L86.2119089,3.66754202 L86.230334,3.66754202 C86.525136,3.20903361 86.9515461,2.98319328 87.4985092,2.98319328 C88.3923911,2.98319328 88.9388277,3.67594538 88.9388277,4.77678571 L88.9388277,7.28151261" id="Fill-26"></path>
                    <path d="M93.7314665,5.4012605 L90.9176864,5.4012605 C90.9350586,6.1980042 91.4630701,6.64863445 92.2448219,6.64863445 C92.663862,6.64863445 93.0449989,6.57878151 93.3819155,6.44905462 L93.5287901,7.09926471 C93.1302809,7.27258403 92.660177,7.3592437 92.1132139,7.3592437 C90.7923955,7.3592437 90.0111701,6.52678571 90.0111701,5.23686975 C90.0111701,3.94590336 90.8108206,2.97531513 92.0084539,2.97531513 C93.0850077,2.97531513 93.7630524,3.77258403 93.7630524,4.97689076 C93.7667374,5.14128151 93.7577881,5.28886555 93.7314665,5.4012605 L93.7314665,5.4012605 Z M92.8718027,4.7342437 C92.8718027,4.08403361 92.5422561,3.625 91.9426499,3.625 C91.4035833,3.625 90.9787525,4.09296218 90.9176864,4.7342437 L92.8718027,4.7342437 L92.8718027,4.7342437 Z" id="Fill-27"></path>
                </g>
            </g>
        </g>
    </g>
</svg>