<?xml version="1.0" encoding="UTF-8" standalone="no"?>
<svg width="17px" height="16px" viewBox="0 0 17 16" version="1.1" xmlns="http://www.w3.org/2000/svg" xmlns:xlink="http://www.w3.org/1999/xlink" xmlns:sketch="http://www.bohemiancoding.com/sketch/ns">
    <!-- Generator: Sketch 3.3 (11970) - http://www.bohemiancoding.com/sketch -->
    <title>Fill 250</title>
    <desc>Created with Sketch.</desc>
    <defs></defs>
    <g id="Categories" stroke="none" stroke-width="1" fill="none" fill-rule="evenodd" sketch:type="MSPage">
        <g id="Marketplace" sketch:type="MSArtboardGroup" transform="translate(-583.000000, -3911.000000)" fill="#FFFFFF">
            <g id="Footer" sketch:type="MSLayerGroup" transform="translate(0.000000, 3602.000000)">
                <g id="Fill-250-+-Fill-132-+-Fill-260" transform="translate(583.000000, 309.000000)" sketch:type="MSShapeGroup">
                    <path d="M13.9050723,0.199951172 L3.23892775,0.199951172 C1.83771373,0.199951172 0.572,1.38655779 0.572,2.70093022 L0.572,12.6997064 C0.572,14.0133446 1.83771373,15.1999512 3.23892775,15.1999512 L8.572,15.1999512 L8.572,9.53272971 L6.61703622,9.53272971 L6.61703622,7.03321924 L8.572,7.03321924 L8.572,6.05955564 C8.572,4.37950864 9.91838731,2.86687892 11.5718042,2.86687892 L13.7272771,2.86687892 L13.7272771,5.36638939 L11.5718042,5.36638939 C11.3360493,5.36638939 11.0611326,5.63587246 11.0611326,6.03679276 L11.0611326,7.03321924 L13.7272771,7.03321924 L13.7272771,9.53272971 L11.0611326,9.53272971 L11.0611326,15.1999512 L13.9050723,15.1999512 C15.3070695,15.1999512 16.572,14.0133446 16.572,12.6997064 L16.572,2.70093022 C16.572,1.38655779 15.3070695,0.199951172 13.9050723,0.199951172 Z" id="Fill-250"></path>
                </g>
            </g>
        </g>
    </g>
</svg>