<?xml version="1.0" encoding="UTF-8" standalone="no"?>
<svg width="99px" height="27px" viewBox="0 0 99 27" version="1.1" xmlns="http://www.w3.org/2000/svg" xmlns:xlink="http://www.w3.org/1999/xlink" xmlns:sketch="http://www.bohemiancoding.com/sketch/ns">
    <!-- Generator: Sketch 3.3 (11970) - http://www.bohemiancoding.com/sketch -->
    <title>Group</title>
    <desc>Created with Sketch.</desc>
    <defs></defs>
    <g id="Categories" stroke="none" stroke-width="1" fill="none" fill-rule="evenodd" sketch:type="MSPage">
        <g id="Marketplace" sketch:type="MSArtboardGroup" transform="translate(-798.000000, -3441.000000)">
            <g id="Imported-Layers-4" sketch:type="MSLayerGroup" transform="translate(762.000000, 3430.000000)">
                <g id="Group" transform="translate(36.000000, 11.000000)" sketch:type="MSShapeGroup">
                    <g id="Imported-Layers" transform="translate(0.000000, 2.428571)">
                        <path d="M14.7751095,7.14077922 C10.0897581,4.55827273 2.97652467,0.697004329 1.95752496,0.188625541 C1.44693066,-0.0660974026 1.05756307,-0.0530411255 0.765730511,0.0748225108 L11.4152045,10.4138247 L14.7751095,7.14077922" id="Fill-1" fill="#B1E9B6"></path>
                        <path d="M0.765730511,0.0748225108 C0.19841781,0.323393939 0,1.00658874 0,1.00658874 L0,19.853513 C0.222946423,20.3834848 0.551475328,20.6094589 0.865969489,20.6903074 L11.4152045,10.4138247 L0.765730511,0.0748225108" id="Fill-2" fill="#4ED4D2"></path>
                        <path d="M18.894822,9.45877056 C18.677541,9.305171 17.0000028,8.36712771 14.7751095,7.14077922 L11.4152045,10.4138247 L14.6493762,13.5536082 C16.8483245,12.3458398 18.5467218,11.4097424 18.9014531,11.2057381 C19.497286,10.8630108 19.4054807,9.81976407 18.894822,9.45877056" id="Fill-3" fill="#FFBE84"></path>
                        <path d="M0.865969489,20.6903074 C1.3403181,20.8122078 1.78273445,20.6031818 1.78273445,20.6031818 C1.78273445,20.6032446 9.55817606,16.3499113 14.6493762,13.5536082 L11.4152045,10.4138247 L0.865969489,20.6903074" id="Fill-4" fill="#D14F90"></path>
                    </g>
                    <path d="M29.7683629,1.30252101 C30.5850338,1.30252101 31.1498933,1.66806723 31.5178439,2.04306723 L30.9440099,2.68539916 C30.6473267,2.39968487 30.324776,2.2032563 29.7778652,2.2032563 C28.7368343,2.2032563 28.0373586,3.00630252 28.0373586,4.31827731 C28.0373586,5.64810924 28.665567,6.45115546 29.8401582,6.45115546 C30.1632367,6.45115546 30.4863153,6.36186975 30.6747778,6.1927521 L30.6747778,4.93434874 L29.5714539,4.93434874 L29.5714539,4.08613445 L31.6070601,4.08613445 L31.6070601,6.65651261 C31.2037398,7.03151261 30.5127106,7.35241597 29.7145165,7.35241597 C28.1540259,7.35241597 26.9699324,6.28151261 26.9699324,4.34506303 C26.9699324,2.43539916 28.1904514,1.30252101 29.7683629,1.30252101" id="Fill-4" fill="#FFFFFF"></path>
                    <path d="M34.5432742,2.75682773 C35.7363421,2.75682773 36.3640225,3.61344538 36.3640225,4.83560924 C36.3640225,5.03256303 36.3460737,5.21060924 36.3191505,5.3177521 L33.5207199,5.3177521 C33.610464,6.11186975 34.1130306,6.55829832 34.8214807,6.55829832 C35.1978778,6.55829832 35.5209564,6.44222689 35.843507,6.23686975 L36.1935088,6.87972689 C35.7717118,7.15598739 35.2427498,7.35241597 34.6868646,7.35241597 C33.4668735,7.35241597 32.5161145,6.50472689 32.5161145,5.05882353 C32.5161145,3.63130252 33.5117455,2.75682773 34.5432742,2.75682773 L34.5432742,2.75682773 Z M35.466582,4.6664916 C35.466582,3.97058824 35.1709546,3.55094538 34.5701974,3.55094538 C34.0496819,3.55094538 33.6014896,3.93487395 33.5117455,4.6664916 L35.466582,4.6664916 L35.466582,4.6664916 Z" id="Fill-5" fill="#FFFFFF"></path>
                    <path d="M37.3707396,3.67542017 L36.7430591,3.67542017 L36.7430591,2.90861345 L37.424586,2.86397059 L37.5507556,1.66806723 L38.4117705,1.66806723 L38.4117705,2.86397059 L39.5325153,2.86397059 L39.5325153,3.67542017 L38.4117705,3.67542017 L38.4117705,5.76418067 C38.4117705,6.28151261 38.6086795,6.53151261 39.0304765,6.53151261 C39.1830414,6.53151261 39.3620016,6.48686975 39.4876433,6.43329832 L39.6671314,7.19170168 C39.4253503,7.27205882 39.1202206,7.35241597 38.7702188,7.35241597 C37.7476646,7.35241597 37.3707396,6.71008403 37.3707396,5.76418067 L37.3707396,3.67542017" id="Fill-6" fill="#FFFFFF"></path>
                    <path d="M42.1815484,1.51628151 C42.1815484,1.16859244 42.4507805,0.927521008 42.8182032,0.927521008 C43.1861538,0.927521008 43.455386,1.16859244 43.455386,1.51628151 C43.455386,1.85556723 43.1861538,2.09663866 42.8182032,2.09663866 C42.4507805,2.09663866 42.1815484,1.85556723 42.1815484,1.51628151 L42.1815484,1.51628151 Z M42.2982157,2.86397059 L43.3297443,2.86397059 L43.3297443,7.24527311 L42.2982157,7.24527311 L42.2982157,2.86397059 Z" id="Fill-7" fill="#FFFFFF"></path>
                    <path d="M44.8020746,3.67542017 L44.1738663,3.67542017 L44.1738663,2.90861345 L44.855921,2.86397059 L44.9815627,1.66806723 L45.8425776,1.66806723 L45.8425776,2.86397059 L46.9638503,2.86397059 L46.9638503,3.67542017 L45.8425776,3.67542017 L45.8425776,5.76418067 C45.8425776,6.28151261 46.0400145,6.53151261 46.4612837,6.53151261 C46.6138485,6.53151261 46.7933366,6.48686975 46.9189783,6.43329832 L47.0979385,7.19170168 C46.8561575,7.27205882 46.5510277,7.35241597 46.2010259,7.35241597 C45.1789996,7.35241597 44.8020746,6.71008403 44.8020746,5.76418067 L44.8020746,3.67542017" id="Fill-8" fill="#FFFFFF"></path>
                    <path d="M51.5307665,2.75682773 C52.6346183,2.75682773 53.6302493,3.59558824 53.6302493,5.05882353 C53.6302493,6.51365546 52.6346183,7.35241597 51.5307665,7.35241597 C50.436945,7.35241597 49.4413139,6.51365546 49.4413139,5.05882353 C49.4413139,3.59558824 50.436945,2.75682773 51.5307665,2.75682773 L51.5307665,2.75682773 Z M51.5307665,6.51365546 C52.1774516,6.51365546 52.5717975,5.93329832 52.5717975,5.05882353 C52.5717975,4.17594538 52.1774516,3.59558824 51.5307665,3.59558824 C50.8856652,3.59558824 50.4997658,4.17594538 50.4997658,5.05882353 C50.4997658,5.93329832 50.8856652,6.51365546 51.5307665,6.51365546 L51.5307665,6.51365546 Z" id="Fill-9" fill="#FFFFFF"></path>
                    <path d="M54.655971,2.86397059 L55.5074836,2.86397059 L55.5798068,3.45273109 L55.6146486,3.45273109 C56.0089945,3.06932773 56.4577147,2.75682773 57.0589998,2.75682773 C58.0018402,2.75682773 58.414135,3.3907563 58.414135,4.49684874 L58.414135,7.24527311 L57.3815505,7.24527311 L57.3815505,4.63077731 C57.3815505,3.90808824 57.176195,3.64023109 56.6910492,3.64023109 C56.3051498,3.64023109 56.0543944,3.82720588 55.6864438,4.18434874 L55.6864438,7.24527311 L54.655971,7.24527311 L54.655971,2.86397059" id="Fill-10" fill="#FFFFFF"></path>
                    <path d="M78.5854294,22.6444328 C78.1182324,22.6444328 77.6911563,22.5598739 77.3057848,22.3881303 C76.9193575,22.217437 76.5946952,21.9532563 76.3339096,21.5971639 L76.2541958,21.5971639 C76.3064585,22.0141807 76.3339096,22.4091387 76.3339096,22.7815126 L76.3339096,25.720063 L75.2469508,25.720063 L75.2469508,15.3760504 L76.1311936,15.3760504 L76.281119,16.3529412 L76.3339096,16.3529412 C76.613172,15.9621849 76.9378343,15.6811975 77.3100081,15.5057773 C77.6800703,15.3340336 78.1060906,15.2463235 78.5854294,15.2463235 C79.5377721,15.2463235 80.2715617,15.5698529 80.7894376,16.2158613 C81.3057298,16.8629202 81.5644039,17.7715336 81.5644039,18.9396008 C81.5644039,20.1113445 81.3009787,21.0220588 80.7772958,21.6722689 C80.2488617,22.3203782 79.5192954,22.6444328 78.5854294,22.6444328 L78.5854294,22.6444328 Z M78.4275854,16.1633403 C77.6959075,16.1633403 77.1648339,16.3655462 76.8375321,16.7704832 C76.5107582,17.1738445 76.3423561,17.8167017 76.3339096,18.6980042 L76.3339096,18.9396008 C76.3339096,19.9422269 76.5012559,20.6591387 76.8375321,21.092437 C77.1732804,21.5241597 77.7122726,21.7405462 78.4545087,21.7405462 C79.0742705,21.7405462 79.561,21.490021 79.9115297,20.9905462 C80.2636431,20.4926471 80.4389079,19.8035714 80.4389079,18.9259454 C80.4389079,18.0362395 80.2636431,17.3534664 79.9115297,16.8776261 C79.561,16.4007353 79.0652961,16.1633403 78.4275854,16.1633403 L78.4275854,16.1633403 Z" id="Fill-11" fill="#FFFFFF"></path>
                    <path d="M82.9934458,12.3802521 L84.0804046,12.3802521 L84.0804046,22.5147059 L82.9934458,22.5147059 L82.9934458,12.3802521 Z" id="Fill-12" fill="#FFFFFF"></path>
                    <path d="M90.328174,22.5147059 L90.1127883,21.4989496 L90.0599977,21.4989496 C89.7026052,21.9480042 89.3446849,22.2494748 88.9888761,22.407563 C88.6341232,22.5651261 88.1896262,22.6444328 87.6569689,22.6444328 C86.9464072,22.6444328 86.3889383,22.4621849 85.9845621,22.0987395 C85.5817697,21.7331933 85.3785259,21.2153361 85.3785259,20.5414916 C85.3785259,19.1008403 86.5378078,18.3440126 88.8558438,18.2752101 L90.0742512,18.2358193 L90.0742512,17.7920168 C90.0742512,17.2326681 89.9523048,16.8182773 89.709468,16.552521 C89.4687428,16.2857143 89.0791481,16.1512605 88.5475466,16.1512605 C87.948901,16.1512605 87.2742369,16.3345588 86.5193311,16.6990546 L86.1846386,15.8702731 C86.5378078,15.6811975 86.9252909,15.5315126 87.3460321,15.4212185 C87.7673012,15.3125 88.1896262,15.2594538 88.6140627,15.2594538 C89.4687428,15.2594538 90.1022302,15.4485294 90.5150528,15.8266807 C90.9268196,16.2037815 91.1337588,16.8088235 91.1337588,17.6433824 L91.1337588,22.5147059 L90.328174,22.5147059 L90.328174,22.5147059 Z M87.8744662,21.7526261 C88.550714,21.7526261 89.0828434,21.5677521 89.4687428,21.1995798 C89.8530585,20.8298319 90.0468001,20.3130252 90.0468001,19.6486345 L90.0468001,19.0052521 L88.9593134,19.0493697 C88.095131,19.0808824 87.4722017,19.2137605 87.0926372,19.4506303 C86.7093773,19.6880252 86.5193311,20.0567227 86.5193311,20.5546218 C86.5193311,20.9453782 86.6365262,21.2431723 86.8751398,21.4464286 C87.1137534,21.6512605 87.4458064,21.7526261 87.8744662,21.7526261 L87.8744662,21.7526261 Z" id="Fill-13" fill="#FFFFFF"></path>
                    <path d="M91.7646067,15.3760504 L92.9291677,15.3760504 L94.5018001,19.4480042 C94.8444112,20.3765756 95.0608528,21.0472689 95.1421503,21.4606092 L95.1949409,21.4606092 C95.2519548,21.237395 95.3707337,20.8597689 95.5523334,20.322479 C95.7339331,19.7862395 96.325188,18.1365546 97.3287376,15.3760504 L98.4943544,15.3760504 L95.4124383,23.5042017 C95.1057248,24.3088235 94.749916,24.8776261 94.3413167,25.2148109 C93.9327173,25.552521 93.4317344,25.720063 92.8394236,25.720063 C92.5068428,25.720063 92.179013,25.6811975 91.8559345,25.6081933 L91.8559345,24.7415966 C92.0961318,24.7956933 92.364836,24.8209034 92.6609914,24.8209034 C93.4079786,24.8209034 93.940108,24.4033613 94.2589633,23.5703782 L94.6585883,22.5546218 L91.7646067,15.3760504" id="Fill-14" fill="#FFFFFF"></path>
                    <path d="M58.4532,16.039916 C58.7995065,16.3230042 59.5179867,16.9201681 59.5179867,18.0546218 C59.5179867,19.1601891 58.8887226,19.6832983 58.2589305,20.1759454 C58.0641332,20.3676471 57.8371335,20.5798319 57.8371335,20.9086134 C57.8371335,21.2363445 58.0641332,21.414916 58.2288399,21.5493697 L58.7699437,21.9669118 C59.4298264,22.5204832 60.0289999,23.0273109 60.0289999,24.0588235 C60.0289999,25.4616597 58.6627788,26.8802521 56.0823734,26.8802521 C53.9058163,26.8802521 52.8563389,25.8497899 52.8563389,24.7452731 C52.8563389,24.2069328 53.1250431,23.4469538 54.0124534,22.9227941 C54.9415682,22.355042 56.2037919,22.2815126 56.8784559,22.2358193 C56.6672935,21.9669118 56.428152,21.6838235 56.428152,21.2226891 C56.428152,20.9669118 56.5031147,20.8172269 56.5775494,20.637605 C56.4123148,20.6528361 56.2476081,20.6670168 56.0966269,20.6670168 C54.5071015,20.6670168 53.6059656,19.487395 53.6059656,18.3240546 C53.6059656,17.6370798 53.9216535,16.875 54.5662269,16.3230042 C55.4219628,15.6218487 56.4418775,15.5015756 57.2532693,15.5015756 L60.3446878,15.5015756 L59.3838986,16.039916 L58.4532,16.039916 L58.4532,16.039916 Z M57.3884133,22.6696429 C57.2685786,22.6538866 57.193088,22.6538866 57.0442185,22.6538866 C56.9090745,22.6538866 56.0966269,22.6838235 55.4673628,22.894958 C55.1368935,23.0131303 54.1771601,23.3718487 54.1771601,24.4311975 C54.1771601,25.4894958 55.2123841,26.2531513 56.8182746,26.2531513 C58.2589305,26.2531513 59.0238666,25.5661765 59.0238666,24.6402311 C59.0238666,23.8781513 58.5297464,23.4753151 57.3884133,22.6696429 L57.3884133,22.6696429 Z M57.823408,19.8319328 C58.1686586,19.487395 58.1982213,19.0120798 58.1982213,18.7426471 C58.1982213,17.6664916 57.55312,15.9942227 56.3077894,15.9942227 C55.9171388,15.9942227 55.4974534,16.1896008 55.2562003,16.4884454 C55.0017495,16.8014706 54.9273148,17.2037815 54.9273148,17.5934874 C54.9273148,18.5929622 55.5127627,20.2510504 56.8029654,20.2510504 C57.1788345,20.2510504 57.5832107,20.0714286 57.823408,19.8319328 L57.823408,19.8319328 Z" id="Fill-15" fill="#FFFFFF"></path>
                    <path d="M49.0063193,22.4317227 C46.6233508,22.4317227 45.3505691,20.5814076 45.3505691,18.9117647 C45.3505691,16.9595588 46.9527643,15.289916 49.2306794,15.289916 C51.4331039,15.289916 52.8119948,17.0042017 52.8119948,18.8088235 C52.8119948,20.5667017 51.4489411,22.4317227 49.0063193,22.4317227 L49.0063193,22.4317227 Z M50.8782745,21.2232143 C51.2388344,20.7463235 51.3280506,20.1491597 51.3280506,19.5682773 C51.3280506,18.2552521 50.6998422,15.7521008 48.8410846,15.7521008 C48.3464366,15.7521008 47.8523164,15.9464286 47.4933402,16.2594538 C46.9089481,16.7809874 46.8033668,17.4364496 46.8033668,18.0793067 C46.8033668,19.5535714 47.5382122,21.9826681 49.351042,21.9826681 C49.9354341,21.9826681 50.5356634,21.6995798 50.8782745,21.2232143 L50.8782745,21.2232143 Z" id="Fill-16" fill="#FFFFFF"></path>
                    <path d="M40.8850109,22.4317227 C38.5015146,22.4317227 37.2287328,20.5814076 37.2287328,18.9117647 C37.2287328,16.9595588 38.8319838,15.289916 41.109371,15.289916 C43.3117955,15.289916 44.6901585,17.0042017 44.6901585,18.8088235 C44.6901585,20.5667017 43.3271048,22.4317227 40.8850109,22.4317227 L40.8850109,22.4317227 Z M42.7580219,21.2232143 C43.1169981,20.7463235 43.2067422,20.1491597 43.2067422,19.5682773 C43.2067422,18.2552521 42.5780059,15.7521008 40.7197762,15.7521008 C40.2251282,15.7521008 39.7304801,15.9464286 39.3715039,16.2594538 C38.786056,16.7809874 38.6815306,17.4364496 38.6815306,18.0793067 C38.6815306,19.5535714 39.415848,21.9826681 41.2297336,21.9826681 C41.8135978,21.9826681 42.4122434,21.6995798 42.7580219,21.2232143 L42.7580219,21.2232143 Z" id="Fill-17" fill="#FFFFFF"></path>
                    <path d="M36.0831764,22.197479 L33.9298472,22.6917017 C33.0540509,22.8266807 32.2722218,22.9453782 31.444465,22.9453782 C27.2866761,22.9453782 25.7045413,19.9038866 25.7045413,17.519958 C25.7045413,14.6129202 27.9486704,11.9159664 31.7902435,11.9159664 C32.6048027,11.9159664 33.3866318,12.0357143 34.094026,12.230042 C35.2253289,12.5451681 35.7527072,12.9348739 36.0831764,13.1591387 L34.8330946,14.3429622 L34.3062443,14.4621849 L34.6831693,13.862395 C34.1705724,13.3692227 33.2361785,12.4548319 31.4592464,12.4548319 C29.0789175,12.4548319 27.2866761,14.2542017 27.2866761,16.8765756 C27.2866761,19.6938025 29.3344241,22.3471639 32.6180004,22.3471639 C33.5835408,22.3471639 34.0797725,22.1507353 34.5316602,21.9711134 L34.5316602,19.5598739 L32.2579684,19.6790966 L33.4621223,19.0330882 L36.6559546,19.0330882 L36.2642482,19.4086134 C36.1581391,19.4984244 36.1433577,19.5283613 36.1132671,19.6486345 C36.0979578,19.7830882 36.0831764,20.2190126 36.0831764,20.3671218 L36.0831764,22.197479" id="Fill-18" fill="#FFFFFF"></path>
                    <path d="M63.2154415,21.7657563 C62.717626,21.720063 62.6146843,21.6313025 62.6146843,21.0451681 L62.6146843,12.5630252 C62.6173238,12.529937 62.6199633,12.4978992 62.6215471,12.4658613 C62.6827842,11.9417017 62.8327095,11.852416 63.3014902,11.5819328 L61.1465772,11.5819328 L60.0158023,12.1218487 L61.1666377,12.1218487 L61.1666377,12.1281513 L61.1666377,12.1228992 L61.1666377,21.3760504 C61.1666377,21.674895 61.1069843,21.720063 60.7601499,22.1691176 L63.4260761,22.1691176 L63.9851287,21.8413866 C63.7285663,21.8093487 63.471476,21.7951681 63.2154415,21.7657563" id="Fill-19" fill="#FFFFFF"></path>
                    <path d="M69.3460157,21.9023109 C69.181309,21.9921218 69.0166023,22.0971639 68.8534793,22.1701681 C68.3583033,22.394958 67.8494018,22.4543067 67.3996257,22.4543067 C66.9229265,22.4543067 66.1738276,22.4233193 65.4110032,21.8728992 C64.3478002,21.1292017 63.8842986,19.8492647 63.8842986,18.7321429 C63.8842986,16.424895 65.7710352,15.2941176 67.3109375,15.2941176 C67.8494018,15.2941176 68.4021195,15.4285714 68.8534793,15.7116597 C69.5994107,16.2016807 69.7942081,16.8408613 69.8992614,17.1843487 L66.3839343,18.5987395 L65.2304593,18.6885504 C65.6047448,20.5787815 66.8912521,21.6790966 68.3129034,21.6790966 C69.0762557,21.6790966 69.6295014,21.4107143 70.1384029,21.1586134 L69.3460157,21.9023109 L69.3460157,21.9023109 Z M67.9386179,17.4658613 C68.2236872,17.3634454 68.3725568,17.2736345 68.3725568,17.0661765 C68.3725568,16.4711134 67.7000043,15.7857143 66.8912521,15.7857143 C66.2920786,15.7857143 65.1708059,16.2473739 65.1708059,17.855042 C65.1708059,18.1071429 65.2008966,18.3755252 65.2172617,18.6433824 L67.9386179,17.4658613 L67.9386179,17.4658613 Z" id="Fill-20" fill="#FFFFFF"></path>
                    <path d="M70.7893112,15.3960084 L70.7893112,16.3781513 L70.6694765,16.3781513 L70.6694765,15.3960084 L70.3427026,15.3960084 L70.3427026,15.2941176 L71.116613,15.2941176 L71.116613,15.3960084 L70.7893112,15.3960084" id="Fill-21" fill="#FFFFFF"></path>
                    <path d="M72.134944,16.3781513 L72.134944,15.387605 L72.1307207,15.387605 L71.825591,16.3781513 L71.7316237,16.3781513 L71.4249102,15.387605 L71.4217428,15.387605 L71.4217428,16.3781513 L71.3119383,16.3781513 L71.3119383,15.2941176 L71.499345,15.2941176 L71.7770236,16.1706933 L71.7801911,16.1706933 L72.0541744,15.2941176 L72.2426369,15.2941176 L72.2426369,16.3781513 L72.134944,16.3781513" id="Fill-22" fill="#FFFFFF"></path>
                </g>
            </g>
        </g>
    </g>
</svg>