<?xml version="1.0" encoding="UTF-8" standalone="no"?>
<svg width="8px" height="8px" viewBox="0 0 8 8" version="1.1" xmlns="http://www.w3.org/2000/svg" xmlns:xlink="http://www.w3.org/1999/xlink" xmlns:sketch="http://www.bohemiancoding.com/sketch/ns">
    <!-- Generator: Sketch 3.3 (11970) - http://www.bohemiancoding.com/sketch -->
    <title>Imported Layers</title>
    <desc>Created with Sketch.</desc>
    <defs></defs>
    <g id="Categories" stroke="none" stroke-width="1" fill="none" fill-rule="evenodd" sketch:type="MSPage">
        <g id="Custom-Categories" sketch:type="MSArtboardGroup" transform="translate(-751.000000, -596.000000)" stroke="#FFFFFF" stroke-width="1.5" fill="#FFFFFF">
            <g id="Rectangle-164-+-XXS-+-Imported-Layers-2" sketch:type="MSLayerGroup" transform="translate(658.000000, 588.000000)">
                <g id="Imported-Layers" transform="translate(94.000000, 9.000000)" sketch:type="MSShapeGroup">
                    <path d="M0.126486486,5.84416216 C0.0953513514,5.84416216 0.0642162162,5.83232432 0.0403783784,5.80848649 C-0.00713513514,5.76097297 -0.00713513514,5.68410811 0.0403783784,5.63659459 L5.63497297,0.042 C5.68248649,-0.00551351351 5.75951351,-0.00551351351 5.80702703,0.042 C5.85454054,0.0895135135 5.85454054,0.166378378 5.80702703,0.213891892 L0.212432432,5.80848649 C0.188594595,5.83232432 0.157459459,5.84416216 0.126486486,5.84416216" id="Fill-1"></path>
                    <path d="M5.72108108,5.84416216 C5.68994595,5.84416216 5.65881081,5.83232432 5.63497297,5.80848649 L0.0403783784,0.213891892 C-0.00713513514,0.166378378 -0.00713513514,0.0895135135 0.0403783784,0.042 C0.0878918919,-0.00551351351 0.164918919,-0.00551351351 0.212432432,0.042 L5.80702703,5.63659459 C5.85454054,5.68410811 5.85454054,5.76097297 5.80702703,5.80848649 C5.78318919,5.83232432 5.75205405,5.84416216 5.72108108,5.84416216" id="Fill-2"></path>
                </g>
            </g>
        </g>
    </g>
</svg>