<?xml version="1.0" encoding="UTF-8" standalone="no"?>
<svg width="23px" height="19px" viewBox="0 0 23 19" version="1.1" xmlns="http://www.w3.org/2000/svg" xmlns:xlink="http://www.w3.org/1999/xlink" xmlns:sketch="http://www.bohemiancoding.com/sketch/ns">
    <!-- Generator: Sketch 3.3 (11970) - http://www.bohemiancoding.com/sketch -->
    <title>Imported Layers</title>
    <desc>Created with Sketch.</desc>
    <defs></defs>
    <g id="Categories" stroke="none" stroke-width="1" fill="none" fill-rule="evenodd" sketch:type="MSPage">
        <g id="Custom-Categories---Mobile-3" sketch:type="MSArtboardGroup" transform="translate(-444.000000, -754.000000)" fill="#222222">
            <g id="FILTERS-+-Rectangle-10-+-Imported-Layers" sketch:type="MSLayerGroup" transform="translate(419.000000, 733.000000)">
                <path d="M31.5714286,32.875 C31.5714286,33.3127917 31.2034286,33.6666667 30.75,33.6666667 L29.1071429,33.6666667 L29.1071429,39.2083333 C29.1071429,39.6453333 28.7391429,40 28.2857143,40 C27.8322857,40 27.4642857,39.6453333 27.4642857,39.2083333 L27.4642857,33.6666667 L25.8214286,33.6666667 C25.368,33.6666667 25,33.3127917 25,32.875 L25,29.7083333 C25,29.2705417 25.368,28.9166667 25.8214286,28.9166667 L27.4642857,28.9166667 L27.4642857,21.7916667 C27.4642857,21.353875 27.8322857,21 28.2857143,21 C28.7391429,21 29.1071429,21.353875 29.1071429,21.7916667 L29.1071429,28.9166667 L30.75,28.9166667 C31.2034286,28.9166667 31.5714286,29.2705417 31.5714286,29.7083333 L31.5714286,32.875 L31.5714286,32.875 Z M39.7857143,28.125 C39.7857143,28.5627917 39.4177143,28.9166667 38.9642857,28.9166667 L37.3214286,28.9166667 L37.3214286,39.2083333 C37.3214286,39.6453333 36.9534286,40 36.5,40 C36.0465714,40 35.6785714,39.6453333 35.6785714,39.2083333 L35.6785714,28.9166667 L34.0357143,28.9166667 C33.5822857,28.9166667 33.2142857,28.5627917 33.2142857,28.125 L33.2142857,24.9583333 C33.2142857,24.5205417 33.5822857,24.1666667 34.0357143,24.1666667 L35.6785714,24.1666667 L35.6785714,21.7916667 C35.6785714,21.353875 36.0465714,21 36.5,21 C36.9534286,21 37.3214286,21.353875 37.3214286,21.7916667 L37.3214286,24.1666667 L38.9642857,24.1666667 C39.4177143,24.1666667 39.7857143,24.5205417 39.7857143,24.9583333 L39.7857143,28.125 L39.7857143,28.125 Z M48,36.0416667 C48,36.4786667 47.632,36.8333333 47.1785714,36.8333333 L45.5357143,36.8333333 L45.5357143,39.2083333 C45.5357143,39.6453333 45.1677143,40 44.7142857,40 C44.2608571,40 43.8928571,39.6453333 43.8928571,39.2083333 L43.8928571,36.8333333 L42.25,36.8333333 C41.7965714,36.8333333 41.4285714,36.4786667 41.4285714,36.0416667 L41.4285714,32.875 C41.4285714,32.4372083 41.7965714,32.0833333 42.25,32.0833333 L43.8928571,32.0833333 L43.8928571,21.7916667 C43.8928571,21.353875 44.2608571,21 44.7142857,21 C45.1677143,21 45.5357143,21.353875 45.5357143,21.7916667 L45.5357143,32.0833333 L47.1785714,32.0833333 C47.632,32.0833333 48,32.4372083 48,32.875 L48,36.0416667 L48,36.0416667 Z" id="Imported-Layers" sketch:type="MSShapeGroup"></path>
            </g>
        </g>
    </g>
</svg>