<?xml version="1.0" encoding="UTF-8" standalone="no"?>
<svg width="36px" height="48px" viewBox="0 0 36 48" version="1.1" xmlns="http://www.w3.org/2000/svg" xmlns:xlink="http://www.w3.org/1999/xlink" xmlns:sketch="http://www.bohemiancoding.com/sketch/ns">
    <!-- Generator: Sketch 3.3 (11970) - http://www.bohemiancoding.com/sketch -->
    <title>Imported Layers</title>
    <desc>Created with Sketch.</desc>
    <defs></defs>
    <g id="Categories" stroke="none" stroke-width="1" fill="none" fill-rule="evenodd" sketch:type="MSPage">
        <g id="Marketplace" sketch:type="MSArtboardGroup" transform="translate(-1085.000000, -2823.000000)">
            <g id="Secure-+-We-use-PayPal-for-ou-+-Imported-Layers" sketch:type="MSLayerGroup" transform="translate(953.000000, 2823.000000)">
                <g id="Imported-Layers" transform="translate(132.000000, 0.000000)" sketch:type="MSShapeGroup">
                    <path d="M18,32 C16.897,32 16,31.103 16,30 C16,28.897 16.897,28 18,28 C19.103,28 20,28.897 20,30 C20,31.103 19.103,32 18,32" id="Fill-1" fill="#FE4080"></path>
                    <path d="M18,38 C17.448,38 17,37.552 17,37 L17,31 C17,30.448 17.448,30 18,30 C18.552,30 19,30.448 19,31 L19,37 C19,37.552 18.552,38 18,38" id="Fill-2" fill="#FE4080"></path>
                    <path d="M0,18 L36,18 L36,48 L0,48 L0,18 Z M2,46 L34,46 L34,20 L2,20 L2,46 Z" id="Fill-3" fill="#000000"></path>
                    <path d="M30,19 L28,19 L28,12 C28,6.486 23.514,2 18,2 C12.486,2 8,6.486 8,12 L6,12 C6,5.383 11.383,0 18,0 C24.617,0 30,5.383 30,12 L30,19" id="Fill-4" fill="#000000"></path>
                </g>
            </g>
        </g>
    </g>
</svg>