<?xml version="1.0" encoding="UTF-8" standalone="no"?>
<svg width="48px" height="41px" viewBox="0 0 48 41" version="1.1" xmlns="http://www.w3.org/2000/svg" xmlns:xlink="http://www.w3.org/1999/xlink" xmlns:sketch="http://www.bohemiancoding.com/sketch/ns">
    <!-- Generator: Sketch 3.3 (11970) - http://www.bohemiancoding.com/sketch -->
    <title>Imported Layers</title>
    <desc>Created with Sketch.</desc>
    <defs></defs>
    <g id="Categories" stroke="none" stroke-width="1" fill="none" fill-rule="evenodd" sketch:type="MSPage">
        <g id="Marketplace" sketch:type="MSArtboardGroup" transform="translate(-676.000000, -2828.000000)" fill="#FE4080">
            <g id="Secure-+-We-use-PayPal-for-ou-+-Imported-Layers-2" sketch:type="MSLayerGroup" transform="translate(552.000000, 2828.000000)">
                <path d="M139.00025,41.00025 C138.74425,41.00025 138.48825,40.90225 138.29325,40.70725 L124.29325,26.70725 C123.90225,26.31625 123.90225,25.68425 124.29325,25.29325 L131.29325,18.29325 C131.68425,17.90225 132.31625,17.90225 132.70725,18.29325 L139.00025,24.58625 L163.29325,0.29325 C163.68425,-0.09775 164.31625,-0.09775 164.70725,0.29325 L171.70725,7.29325 C172.09825,7.68425 172.09825,8.31625 171.70725,8.70725 L139.70725,40.70725 C139.51225,40.90225 139.25625,41.00025 139.00025,41.00025 L139.00025,41.00025 Z M126.41425,26.00025 L139.00025,38.58625 L169.58625,8.00025 L164.00025,2.41425 L139.70725,26.70725 C139.31625,27.09725 138.68425,27.09725 138.29325,26.70725 L132.00025,20.41425 L126.41425,26.00025 L126.41425,26.00025 Z" id="Imported-Layers" sketch:type="MSShapeGroup"></path>
            </g>
        </g>
    </g>
</svg>