<?xml version="1.0" encoding="UTF-8" standalone="no"?>
<svg width="36px" height="48px" viewBox="0 0 36 48" version="1.1" xmlns="http://www.w3.org/2000/svg" xmlns:xlink="http://www.w3.org/1999/xlink" xmlns:sketch="http://www.bohemiancoding.com/sketch/ns">
    <!-- Generator: Sketch 3.3 (11970) - http://www.bohemiancoding.com/sketch -->
    <title>Imported Layers</title>
    <desc>Created with Sketch.</desc>
    <defs></defs>
    <g id="Categories" stroke="none" stroke-width="1" fill="none" fill-rule="evenodd" sketch:type="MSPage">
        <g id="Marketplace" sketch:type="MSArtboardGroup" transform="translate(-276.000000, -2824.000000)">
            <g id="Secure-+-We-use-PayPal-for-ou-+-Imported-Layers-3" sketch:type="MSLayerGroup" transform="translate(145.000000, 2824.000000)">
                <g id="Imported-Layers" transform="translate(131.000000, 0.000000)" sketch:type="MSShapeGroup">
                    <path d="M31,48 L5,48 C2.243,48 0,45.757 0,43 L0,5 C0,2.243 2.243,0 5,0 L31,0 C33.757,0 36,2.243 36,5 L36,43 C36,45.757 33.757,48 31,48 L31,48 Z M5,2 C3.346,2 2,3.346 2,5 L2,43 C2,44.654 3.346,46 5,46 L31,46 C32.654,46 34,44.654 34,43 L34,5 C34,3.346 32.654,2 31,2 L5,2 L5,2 Z" id="Fill-1" fill="#231F1F"></path>
                    <path d="M18,41 C16.894,41 16,41.895 16,43 C16,44.104 16.894,45 18,45 C19.103,45 20,44.104 20,43 C20,41.895 19.103,41 18,41" id="Fill-2" fill="#231F1F"></path>
                    <path d="M31,40 L5,40 C4.447,40 4,39.552 4,39 L4,7 C4,6.448 4.447,6 5,6 L31,6 C31.553,6 32,6.448 32,7 L32,39 C32,39.552 31.553,40 31,40 L31,40 Z M6,38 L30,38 L30,8 L6,8 L6,38 Z" id="Fill-3" fill="#231F1F"></path>
                    <path d="M18,3 C17.447,3 17,3.447 17,4 C17,4.552 17.447,5 18,5 C18.552,5 19,4.552 19,4 C19,3.447 18.552,3 18,3" id="Fill-4" fill="#231F1F"></path>
                    <path d="M10,12 L14,12 L14,16 L10,16 L10,12 Z" id="Fill-5" fill="#FE4080"></path>
                    <path d="M16,12 L20,12 L20,16 L16,16 L16,12 Z" id="Fill-6" fill="#FE4080"></path>
                    <path d="M22,12 L26,12 L26,16 L22,16 L22,12 Z" id="Fill-7" fill="#FE4080"></path>
                    <path d="M10,18 L14,18 L14,22 L10,22 L10,18 Z" id="Fill-8" fill="#FE4080"></path>
                    <path d="M16,18 L20,18 L20,22 L16,22 L16,18 Z" id="Fill-9" fill="#FE4080"></path>
                    <path d="M22,18 L26,18 L26,22 L22,22 L22,18 Z" id="Fill-10" fill="#FE4080"></path>
                    <path d="M10,24 L14,24 L14,28 L10,28 L10,24 Z" id="Fill-11" fill="#FE4080"></path>
                    <path d="M16,24 L20,24 L20,28 L16,28 L16,24 Z" id="Fill-12" fill="#FE4080"></path>
                </g>
            </g>
        </g>
    </g>
</svg>