<?xml version="1.0" encoding="UTF-8" standalone="no"?>
<svg width="15px" height="16px" viewBox="0 0 15 16" version="1.1" xmlns="http://www.w3.org/2000/svg" xmlns:xlink="http://www.w3.org/1999/xlink" xmlns:sketch="http://www.bohemiancoding.com/sketch/ns">
    <!-- Generator: Sketch 3.3 (11970) - http://www.bohemiancoding.com/sketch -->
    <title>Fill 260</title>
    <desc>Created with Sketch.</desc>
    <defs></defs>
    <g id="Categories" stroke="none" stroke-width="1" fill="none" fill-rule="evenodd" sketch:type="MSPage">
        <g id="Marketplace" sketch:type="MSArtboardGroup" transform="translate(-585.000000, -3962.000000)" fill="#FFFFFF">
            <g id="Footer" sketch:type="MSLayerGroup" transform="translate(0.000000, 3602.000000)">
                <g id="Fill-250-+-Fill-132-+-Fill-260" transform="translate(583.000000, 309.000000)" sketch:type="MSShapeGroup">
                    <path d="M9.51416667,56.4480095 C7.85083333,56.4480095 6.5025,57.7563428 6.5025,59.3671761 C6.5025,60.9788428 7.85083333,62.2863428 9.51416667,62.2863428 C11.1775,62.2863428 12.5266667,60.9788428 12.5266667,59.3671761 C12.5266667,57.7563428 11.1775,56.4480095 9.51416667,56.4480095 L9.51416667,56.4480095 Z M15.3041667,58.2430095 L13.9841667,58.2430095 C14.1091667,58.6513428 14.1766667,59.0821761 14.1766667,59.5305095 C14.1766667,62.0255095 12.0891667,64.0471761 9.51416667,64.0471761 C6.93916667,64.0471761 4.85166667,62.0255095 4.85166667,59.5305095 C4.85166667,59.0821761 4.92,58.6513428 5.04416667,58.2430095 L3.66666667,58.2430095 L3.66666667,64.5796761 C3.66666667,64.9080095 3.93583333,65.1755095 4.2625,65.1755095 L14.7091667,65.1755095 C15.0358333,65.1755095 15.3041667,64.9080095 15.3041667,64.5796761 L15.3041667,58.2430095 L15.3041667,58.2430095 Z M12.9275,53.5663428 C12.5558333,53.5663428 12.2516667,53.8705095 12.2516667,54.2421761 L12.2516667,55.8580095 C12.2516667,56.2296761 12.5558333,56.5338428 12.9275,56.5338428 L14.6225,56.5338428 C14.9933333,56.5338428 15.2983333,56.2296761 15.2983333,55.8580095 L15.2983333,54.2421761 C15.2983333,53.8705095 14.9933333,53.5663428 14.6225,53.5663428 L12.9275,53.5663428 L12.9275,53.5663428 Z M3.925,51.8996761 L15.075,51.8996761 C16.1341667,51.8996761 17,52.7655095 17,53.8255095 L17,64.9746761 C17,66.0338428 16.1341667,66.8996761 15.075,66.8996761 L3.925,66.8996761 C2.86666667,66.8996761 2,66.0338428 2,64.9746761 L2,53.8255095 C2,52.7655095 2.86666667,51.8996761 3.925,51.8996761 L3.925,51.8996761 Z" id="Fill-260"></path>
                </g>
            </g>
        </g>
    </g>
</svg>