<?xml version="1.0" encoding="UTF-8" standalone="no"?>
<svg width="45px" height="25px" viewBox="0 0 45 25" version="1.1" xmlns="http://www.w3.org/2000/svg" xmlns:xlink="http://www.w3.org/1999/xlink" xmlns:sketch="http://www.bohemiancoding.com/sketch/ns">
    <!-- Generator: Sketch 3.3 (11970) - http://www.bohemiancoding.com/sketch -->
    <title>Imported Layers</title>
    <desc>Created with Sketch.</desc>
    <defs></defs>
    <g id="Categories" stroke="none" stroke-width="1" fill="none" fill-rule="evenodd" sketch:type="MSPage">
        <g id="Marketplace" sketch:type="MSArtboardGroup" transform="translate(-835.000000, -3852.000000)">
            <g id="Footer" sketch:type="MSLayerGroup" transform="translate(0.000000, 3602.000000)">
                <g id="Imported-Layers" transform="translate(835.000000, 250.000000)" sketch:type="MSShapeGroup">
                    <path d="M0.262692308,0.146969697 L44.8534615,0.146969697 L44.8534615,24.7590909 L0.262692308,24.7590909 L0.262692308,0.146969697 Z" id="Fill-1" fill="#F1F1F2"></path>
                    <path d="M22.8761538,19.5806818 C24.5992308,21.1272727 26.8838462,22.069697 29.3911538,22.069697 C34.7507692,22.069697 39.0957692,17.7643939 39.0957692,12.4522727 C39.0957692,7.14128788 34.7507692,2.83484848 29.3911538,2.83484848 C26.8838462,2.83484848 24.5992308,3.77727273 22.8761538,5.32386364 C20.9165385,7.0844697 19.6861538,9.62537879 19.6861538,12.4522727 C19.6861538,15.2799242 20.9165385,17.8212121 22.8761538,19.5806818" id="Fill-2" fill="#F1AB3D"></path>
                    <path d="M37.8023077,17.8136364 C37.8023077,17.6420455 37.9423077,17.5022727 38.1157692,17.5022727 C38.2888462,17.5022727 38.4292308,17.6420455 38.4292308,17.8136364 C38.4292308,17.9852273 38.2888462,18.1242424 38.1157692,18.1242424 C37.9423077,18.1242424 37.8023077,17.9852273 37.8023077,17.8136364 L37.8023077,17.8136364 Z M38.1157692,18.0488636 C38.2473077,18.0488636 38.3538462,17.9431818 38.3538462,17.8136364 C38.3538462,17.6833333 38.2473077,17.5765152 38.1157692,17.5765152 C37.9842308,17.5765152 37.8773077,17.6833333 37.8773077,17.8136364 C37.8773077,17.9431818 37.9842308,18.0488636 38.1157692,18.0488636 L38.1157692,18.0488636 Z M38.0734615,17.9503788 L38.0088462,17.9503788 L38.0088462,17.6768939 L38.1253846,17.6768939 C38.1496154,17.6768939 38.1746154,17.6768939 38.1957692,17.6909091 C38.2180769,17.705303 38.2303846,17.732197 38.2303846,17.7594697 C38.2303846,17.7893939 38.2123077,17.817803 38.1830769,17.8291667 L38.2338462,17.9503788 L38.1623077,17.9503788 L38.1203846,17.8416667 L38.0734615,17.8416667 L38.0734615,17.9503788 L38.0734615,17.794697 L38.1092308,17.794697 C38.1219231,17.794697 38.1357692,17.7965909 38.1480769,17.7893939 C38.1584615,17.7829545 38.1642308,17.7708333 38.1642308,17.7583333 C38.1642308,17.7473485 38.1573077,17.7359848 38.1484615,17.7295455 C38.1376923,17.7238636 38.1196154,17.7253788 38.1073077,17.7253788 L38.0734615,17.7253788 L38.0734615,17.9503788 L38.0734615,17.9503788 Z" id="Fill-3" fill="#F1AB3D"></path>
                    <path d="M26.0126923,11.4340909 C25.9761538,11.0890152 25.9203846,10.7492424 25.8480769,10.4159091 L19.905,10.4159091 C19.9803846,10.0681818 20.0742308,9.72954545 20.1865385,9.39734848 L25.5665385,9.39734848 C25.4484615,9.04810606 25.3115385,8.70871212 25.1557692,8.37916667 L20.6,8.37916667 C20.7665385,8.02727273 20.9534615,7.6875 21.16,7.36098485 L24.5961538,7.36098485 C24.3715385,7.00492424 24.1242308,6.6655303 23.8553846,6.34204545 L21.8980769,6.34204545 C22.1988462,5.97992424 22.5257692,5.63939394 22.8761538,5.32386364 C21.1538462,3.77727273 18.8692308,2.83484848 16.3619231,2.83484848 C11.0019231,2.83484848 6.65653846,7.14128788 6.65653846,12.4522727 C6.65653846,17.7643939 11.0019231,22.069697 16.3619231,22.069697 C18.8692308,22.069697 21.1538462,21.1272727 22.8761538,19.5806818 C23.2273077,19.2659091 23.555,18.9257576 23.8553846,18.5621212 L21.8980769,18.5621212 C21.6303846,18.2397727 21.3838462,17.8996212 21.16,17.5443182 L24.5961538,17.5443182 C24.8019231,17.2174242 24.9892308,16.8772727 25.1557692,16.5261364 L20.6,16.5261364 C20.4438462,16.1958333 20.3046154,15.8560606 20.1857692,15.5075758 L25.5665385,15.5075758 C25.6784615,15.1757576 25.7734615,14.8356061 25.8480769,14.4893939 C25.9203846,14.155303 25.9761538,13.8162879 26.0126923,13.4712121 C26.0476923,13.1356061 26.0665385,12.7958333 26.0665385,12.4522727 C26.0665385,12.1090909 26.0476923,11.7689394 26.0126923,11.4340909" id="Fill-4" fill="#D82331"></path>
                    <path d="M37.8023077,14.6833333 C37.8023077,14.5117424 37.9423077,14.3727273 38.1157692,14.3727273 C38.2888462,14.3727273 38.4292308,14.5117424 38.4292308,14.6833333 C38.4292308,14.855303 38.2888462,14.9939394 38.1157692,14.9939394 C37.9423077,14.9939394 37.8023077,14.855303 37.8023077,14.6833333 L37.8023077,14.6833333 Z M38.1157692,14.919697 C38.2473077,14.919697 38.3538462,14.8140152 38.3538462,14.6833333 C38.3538462,14.5530303 38.2473077,14.4473485 38.1157692,14.4473485 C37.9842308,14.4473485 37.8773077,14.5530303 37.8773077,14.6833333 C37.8773077,14.8140152 37.9842308,14.919697 38.1157692,14.919697 L38.1157692,14.919697 Z M38.0734615,14.8189394 L38.0088462,14.8189394 L38.0088462,14.5465909 L38.1253846,14.5465909 C38.1496154,14.5465909 38.1746154,14.5473485 38.1957692,14.5602273 C38.2180769,14.5753788 38.2303846,14.6018939 38.2303846,14.6291667 C38.2303846,14.6590909 38.2123077,14.6875 38.1830769,14.6988636 L38.2338462,14.8189394 L38.1623077,14.8189394 L38.1203846,14.7117424 L38.0734615,14.7117424 L38.0734615,14.8189394 L38.0734615,14.6647727 L38.1092308,14.6647727 C38.1223077,14.6647727 38.1357692,14.6662879 38.1480769,14.6590909 C38.1584615,14.6526515 38.1642308,14.6405303 38.1642308,14.6284091 C38.1642308,14.6181818 38.1573077,14.6056818 38.1484615,14.6007576 C38.1376923,14.5943182 38.1196154,14.5954545 38.1073077,14.5954545 L38.0734615,14.5954545 L38.0734615,14.8189394 L38.0734615,14.8189394 Z" id="Fill-5" fill="#FFFFFF"></path>
                    <path d="M29.2965385,10.2465909 L29.1238462,11.3056818 C28.7484615,11.1174242 28.475,11.0420455 28.1830769,11.0420455 C27.3957692,11.0420455 26.845,11.7943182 26.845,12.8685606 C26.845,13.6094697 27.2153846,14.0568182 27.8276923,14.0568182 C28.0873077,14.0568182 28.3734615,13.9772727 28.7230769,13.8068182 L28.5376923,14.9185606 C28.1496154,15.0238636 27.8980769,15.0609848 27.6061538,15.0609848 C26.4726923,15.0609848 25.7657692,14.2530303 25.7657692,12.955303 C25.7657692,11.2109848 26.7419231,9.99242424 28.1376923,9.99242424 C28.3180769,9.99242424 28.4761538,10.0094697 28.6088462,10.0424242 L29.0415385,10.1507576 C29.175,10.1977273 29.2030769,10.2075758 29.2965385,10.2465909" id="Fill-6" fill="#FFFFFF"></path>
                    <path d="M25.915,10.9723485 C25.8830769,10.9651515 25.8469231,10.9628788 25.8088462,10.9628788 C25.4626923,10.9628788 25.2661538,11.1367424 24.9434615,11.6068182 L25.0369231,11.0049242 L24.0834615,11.0049242 L23.4411538,14.9727273 L24.4953846,14.9727273 C24.8719231,12.5458333 24.9715385,12.1280303 25.4773077,12.1280303 C25.5092308,12.1280303 25.5119231,12.1272727 25.5542308,12.132197 C25.6476923,11.6534091 25.7773077,11.3015152 25.9534615,10.9806818 L25.915,10.9723485" id="Fill-7" fill="#FFFFFF"></path>
                    <path d="M19.8453846,14.9234848 C19.5569231,15.0140152 19.3319231,15.0518939 19.0888462,15.0518939 C18.55,15.0518939 18.2553846,14.7458333 18.2553846,14.1814394 C18.2553846,14.0708333 18.2665385,13.9507576 18.2873077,13.8253788 L18.3507692,13.4371212 L18.4003846,13.1234848 L18.8569231,10.4159091 L19.9042308,10.4159091 L19.7838462,11.0049242 L20.3211538,11.0049242 L20.1761538,11.9700758 L19.6369231,11.9700758 L19.3596154,13.625 C19.3473077,13.6977273 19.3411538,13.7526515 19.3411538,13.7890152 C19.3411538,13.9935606 19.4507692,14.082197 19.7015385,14.082197 C19.8203846,14.082197 19.9142308,14.0708333 19.9846154,14.0458333 L19.8453846,14.9234848" id="Fill-8" fill="#FFFFFF"></path>
                    <path d="M15.7984615,12.2590909 C15.7984615,12.7594697 16.0438462,13.1049242 16.5996154,13.3643939 C17.0253846,13.5636364 17.0911538,13.6223485 17.0911538,13.8022727 C17.0911538,14.0492424 16.9034615,14.1609848 16.4876923,14.1609848 C16.1734615,14.1609848 15.8811538,14.1117424 15.5446154,14.0037879 L15.3996154,14.9185606 L15.4469231,14.9276515 L15.64,14.9681818 C15.7015385,14.9810606 15.7934615,14.9924242 15.9146154,15.0030303 C16.1646154,15.0246212 16.3584615,15.0359848 16.4946154,15.0359848 C17.605,15.0359848 18.1176923,14.6174242 18.1176923,13.7121212 C18.1176923,13.1681818 17.9026923,12.8484848 17.3757692,12.6075758 C16.935,12.4068182 16.8846154,12.3625 16.8846154,12.1772727 C16.8846154,11.9636364 17.0588462,11.8537879 17.3988462,11.8537879 C17.6057692,11.8537879 17.8873077,11.8765152 18.155,11.9132576 L18.305,10.9950758 C18.0323077,10.9530303 17.6192308,10.9181818 17.3792308,10.9181818 C16.2015385,10.9181818 15.7946154,11.5265152 15.7984615,12.2590909" id="Fill-9" fill="#FFFFFF"></path>
                    <path d="M37.3396154,14.9727273 L36.3423077,14.9727273 L36.3946154,14.5837121 C36.1057692,14.8897727 35.8069231,15.0246212 35.4203846,15.0246212 C34.6546154,15.0246212 34.1484615,14.3685606 34.1484615,13.3768939 C34.1484615,12.0568182 34.9334615,10.9435606 35.8634615,10.9435606 C36.2719231,10.9435606 36.5834615,11.1113636 36.8715385,11.4878788 L37.1030769,10.0935606 L38.1419231,10.0935606 L37.3396154,14.9727273 L37.3396154,14.9727273 Z M35.7853846,14.0382576 C36.2765385,14.0382576 36.6207692,13.4863636 36.6207692,12.7003788 C36.6207692,12.1965909 36.425,11.9223485 36.0630769,11.9223485 C35.5838462,11.9223485 35.245,12.4757576 35.245,13.2564394 C35.245,13.775 35.4269231,14.0382576 35.7853846,14.0382576 L35.7853846,14.0382576 Z" id="Fill-10" fill="#FFFFFF"></path>
                    <path d="M23.0634615,14.8856061 C22.7026923,14.994697 22.3534615,15.0496212 21.9842308,15.0469697 C20.8069231,15.0469697 20.1942308,14.4375 20.1942308,13.2704545 C20.1942308,11.9083333 20.9742308,10.9064394 22.0338462,10.9064394 C22.9007692,10.9064394 23.4538462,11.4674242 23.4538462,12.3477273 C23.4538462,12.6401515 23.4161538,12.925 23.325,13.3272727 L21.2307692,13.3272727 C21.2230769,13.3886364 21.2211538,13.4155303 21.2211538,13.4518939 C21.2211538,13.9117424 21.5330769,14.1465909 22.1446154,14.1465909 C22.5207692,14.1465909 22.8611538,14.0689394 23.2384615,13.8954545 L23.0634615,14.8856061 L23.0634615,14.8856061 Z M22.4723077,12.5268939 C22.4780769,12.4431818 22.4815385,12.3757576 22.4815385,12.3238636 C22.4815385,12.0018939 22.2969231,11.8128788 21.9826923,11.8128788 C21.6480769,11.8128788 21.4080769,12.0666667 21.3111538,12.5246212 L22.4723077,12.5268939 L22.4723077,12.5268939 Z" id="Fill-11" fill="#FFFFFF"></path>
                    <path d="M11.8046154,14.9727273 L10.7503846,14.9727273 L11.3546154,11.2231061 L10.0069231,14.9727273 L9.28846154,14.9727273 L9.2,11.2431818 L8.56538462,14.9727273 L7.57923077,14.9727273 L8.40269231,10.0935606 L9.91769231,10.0935606 L9.96076923,13.1151515 L10.9823077,10.0935606 L12.6192308,10.0935606 L11.8046154,14.9727273" id="Fill-12" fill="#FFFFFF"></path>
                    <path d="M14.3984615,13.2049242 C14.2880769,13.192803 14.2392308,13.1886364 14.1634615,13.1886364 C13.5661538,13.1886364 13.2638462,13.3916667 13.2638462,13.7924242 C13.2638462,14.0390152 13.4115385,14.1973485 13.6419231,14.1973485 C14.0711538,14.1973485 14.3807692,13.7912879 14.3984615,13.2049242 L14.3984615,13.2049242 Z M15.165,14.9727273 L14.2915385,14.9727273 L14.3119231,14.5602273 C14.0453846,14.8856061 13.6903846,15.0409091 13.2073077,15.0409091 C12.6369231,15.0409091 12.245,14.5984848 12.245,13.957197 C12.245,12.9901515 12.9257692,12.4280303 14.095,12.4280303 C14.2142308,12.4280303 14.3673077,12.4386364 14.5242308,12.4587121 C14.5573077,12.3276515 14.5657692,12.2719697 14.5657692,12.2007576 C14.5657692,11.9382576 14.3815385,11.8409091 13.8903846,11.8409091 C13.5892308,11.8409091 13.2492308,11.8829545 13.0153846,11.9511364 L12.8688462,11.9935606 L12.7746154,12.017803 L12.9207692,11.1268939 C13.4461538,10.9742424 13.7923077,10.9155303 14.1811538,10.9155303 C15.0861538,10.9155303 15.565,11.3185606 15.565,12.0795455 C15.565,12.275 15.5488462,12.425 15.4796154,12.8655303 L15.2588462,14.2727273 L15.2223077,14.525 L15.195,14.7272727 L15.1773077,14.8651515 L15.165,14.9727273 L15.165,14.9727273 Z" id="Fill-13" fill="#FFFFFF"></path>
                    <path d="M30.9961538,13.2049242 C30.8857692,13.192803 30.8373077,13.1886364 30.7611538,13.1886364 C30.1638462,13.1886364 29.8619231,13.3916667 29.8619231,13.7924242 C29.8619231,14.0390152 30.0096154,14.1973485 30.2392308,14.1973485 C30.6684615,14.1973485 30.9784615,13.7912879 30.9961538,13.2049242 L30.9961538,13.2049242 Z M31.7626923,14.9727273 L30.8896154,14.9727273 L30.91,14.5602273 C30.6434615,14.8856061 30.2884615,15.0409091 29.805,15.0409091 C29.2342308,15.0409091 28.8430769,14.5984848 28.8430769,13.957197 C28.8430769,12.9901515 29.5238462,12.4280303 30.6926923,12.4280303 C30.8126923,12.4280303 30.9653846,12.4386364 31.1215385,12.4587121 C31.1542308,12.3276515 31.1630769,12.2719697 31.1630769,12.2007576 C31.1630769,11.9382576 30.98,11.8409091 30.4876923,11.8409091 C30.1876923,11.8409091 29.8476923,11.8829545 29.6138462,11.9511364 L29.4673077,11.9935606 L29.3723077,12.017803 L29.5184615,11.1268939 C30.0434615,10.9742424 30.39,10.9155303 30.7796154,10.9155303 C31.6842308,10.9155303 32.1623077,11.3185606 32.1623077,12.0795455 C32.1623077,12.275 32.1473077,12.425 32.0773077,12.8655303 L31.8565385,14.2727273 L31.8203846,14.525 L31.7930769,14.7272727 L31.775,14.8651515 L31.7626923,14.9727273 L31.7626923,14.9727273 Z" id="Fill-14" fill="#FFFFFF"></path>
                    <path d="M34.5880769,10.9723485 C34.5561538,10.9651515 34.5211538,10.9628788 34.4823077,10.9628788 C34.1365385,10.9628788 33.9396154,11.1367424 33.6169231,11.6068182 L33.7103846,11.0049242 L32.7573077,11.0049242 L32.1146154,14.9727273 L33.1684615,14.9727273 C33.5461538,12.5458333 33.645,12.1280303 34.1511538,12.1280303 C34.1826923,12.1280303 34.1811538,12.1272727 34.2230769,12.1314394 C34.3173077,11.6522727 34.4473077,11.3015152 34.6230769,10.9806818 L34.5880769,10.9723485" id="Fill-15" fill="#FFFFFF"></path>
                </g>
            </g>
        </g>
    </g>
</svg>