<?xml version="1.0" encoding="UTF-8" standalone="no"?>
<svg width="45px" height="25px" viewBox="0 0 45 25" version="1.1" xmlns="http://www.w3.org/2000/svg" xmlns:xlink="http://www.w3.org/1999/xlink" xmlns:sketch="http://www.bohemiancoding.com/sketch/ns">
    <!-- Generator: Sketch 3.3 (11970) - http://www.bohemiancoding.com/sketch -->
    <title>Imported Layers</title>
    <desc>Created with Sketch.</desc>
    <defs></defs>
    <g id="Categories" stroke="none" stroke-width="1" fill="none" fill-rule="evenodd" sketch:type="MSPage">
        <g id="Marketplace" sketch:type="MSArtboardGroup" transform="translate(-784.000000, -3883.000000)">
            <g id="Footer" sketch:type="MSLayerGroup" transform="translate(0.000000, 3602.000000)">
                <g id="Imported-Layers" transform="translate(784.000000, 281.000000)" sketch:type="MSShapeGroup">
                    <path d="M0.224615385,0.179924242 L44.6973077,0.179924242 L44.6973077,24.7261364 L0.224615385,24.7261364 L0.224615385,0.179924242 Z" id="Fill-1" fill="#F1F1F2"></path>
                    <path d="M28.0934615,8.40189394 L25.4673077,8.40189394 C25.2880769,8.40189394 25.135,8.53068182 25.1069231,8.70530303 L24.0453846,15.3367424 C24.0242308,15.4674242 24.1269231,15.5856061 24.2615385,15.5856061 L25.6088462,15.5856061 C25.7346154,15.5856061 25.8415385,15.4958333 25.8611538,15.3734848 L26.1623077,13.4935606 C26.19,13.3185606 26.3430769,13.1901515 26.5226923,13.1901515 L27.3534615,13.1901515 C29.0830769,13.1901515 30.0815385,12.3655303 30.3423077,10.7314394 C30.4596154,10.0170455 30.3469231,9.45568182 30.0073077,9.0625 C29.6338462,8.63030303 28.9719231,8.40189394 28.0934615,8.40189394 L28.0934615,8.40189394 Z M28.3965385,10.8238636 C28.2530769,11.7522727 27.5330769,11.7522727 26.8369231,11.7522727 L26.4407692,11.7522727 L26.7184615,10.0189394 C26.7353846,9.91401515 26.8269231,9.83712121 26.9346154,9.83712121 L27.1161538,9.83712121 C27.5903846,9.83712121 28.0380769,9.83712121 28.2688462,10.1030303 C28.4069231,10.2621212 28.4488462,10.4977273 28.3965385,10.8238636 L28.3965385,10.8238636 Z" id="Fill-2" fill="#009CDE"></path>
                    <path d="M9.36423077,8.40189394 L6.73807692,8.40189394 C6.55846154,8.40189394 6.40576923,8.53068182 6.37769231,8.70530303 L5.31576923,15.3367424 C5.295,15.4674242 5.39769231,15.5856061 5.53192308,15.5856061 L6.78576923,15.5856061 C6.96538462,15.5856061 7.11846154,15.457197 7.14615385,15.2825758 L7.43269231,13.4935606 C7.46076923,13.3185606 7.61346154,13.1901515 7.79307692,13.1901515 L8.62423077,13.1901515 C10.3538462,13.1901515 11.3519231,12.3655303 11.6130769,10.7314394 C11.7303846,10.0170455 11.6176923,9.45568182 11.2780769,9.0625 C10.9046154,8.63030303 10.2426923,8.40189394 9.36423077,8.40189394 L9.36423077,8.40189394 Z M9.66730769,10.8238636 C9.52346154,11.7522727 8.80384615,11.7522727 8.10730769,11.7522727 L7.71115385,11.7522727 L7.98923077,10.0189394 C8.00576923,9.91401515 8.09769231,9.83712121 8.20538462,9.83712121 L8.38692308,9.83712121 C8.86076923,9.83712121 9.30884615,9.83712121 9.53961538,10.1030303 C9.67769231,10.2621212 9.71923077,10.4977273 9.66730769,10.8238636 L9.66730769,10.8238636 Z" id="Fill-3" fill="#003087"></path>
                    <path d="M17.2126923,10.7939394 L15.9553846,10.7939394 C15.8476923,10.7939394 15.7557692,10.8712121 15.7392308,10.9761364 L15.6838462,11.3223485 L15.5961538,11.1969697 C15.3238462,10.8075758 14.7169231,10.6776515 14.1107692,10.6776515 C12.7215385,10.6776515 11.535,11.7143939 11.3038462,13.1685606 C11.1838462,13.8939394 11.3542308,14.5871212 11.7719231,15.0708333 C12.1557692,15.5155303 12.7034615,15.7007576 13.3557692,15.7007576 C14.4753846,15.7007576 15.0965385,14.9920455 15.0965385,14.9920455 L15.0403846,15.3363636 C15.0192308,15.4674242 15.1219231,15.5856061 15.2565385,15.5856061 L16.3888462,15.5856061 C16.5684615,15.5856061 16.7211538,15.457197 16.7492308,15.2825758 L17.4292308,11.0431818 C17.45,10.9125 17.3473077,10.7939394 17.2126923,10.7939394 L17.2126923,10.7939394 Z M15.4603846,13.2045455 C15.3388462,13.9121212 14.7688462,14.3871212 14.0411538,14.3871212 C13.6765385,14.3871212 13.3846154,14.2715909 13.1969231,14.0526515 C13.0107692,13.8359848 12.9407692,13.5268939 12.9996154,13.1829545 C13.1130769,12.4818182 13.6926923,11.9912879 14.4088462,11.9912879 C14.7661538,11.9912879 15.0561538,12.1079545 15.2473077,12.3287879 C15.44,12.5511364 15.5157692,12.8621212 15.4603846,13.2045455 L15.4603846,13.2045455 Z" id="Fill-4" fill="#003087"></path>
                    <path d="M35.9423077,10.7939394 L34.685,10.7939394 C34.5769231,10.7939394 34.4853846,10.8712121 34.4684615,10.9761364 L34.4134615,11.3223485 L34.3253846,11.1969697 C34.0530769,10.8075758 33.4461538,10.6776515 32.84,10.6776515 C31.4507692,10.6776515 30.2642308,11.7143939 30.0334615,13.1685606 C29.9130769,13.8939394 30.0838462,14.5871212 30.5015385,15.0708333 C30.885,15.5155303 31.4326923,15.7007576 32.085,15.7007576 C33.2046154,15.7007576 33.8257692,14.9920455 33.8257692,14.9920455 L33.7696154,15.3363636 C33.7484615,15.4674242 33.8515385,15.5856061 33.9857692,15.5856061 L35.1184615,15.5856061 C35.2976923,15.5856061 35.4507692,15.457197 35.4784615,15.2825758 L36.1584615,11.0431818 C36.1792308,10.9125 36.0765385,10.7939394 35.9423077,10.7939394 L35.9423077,10.7939394 Z M34.19,13.2045455 C34.0684615,13.9121212 33.4980769,14.3871212 32.7707692,14.3871212 C32.4057692,14.3871212 32.1138462,14.2715909 31.9261538,14.0526515 C31.7403846,13.8359848 31.67,13.5268939 31.7292308,13.1829545 C31.8423077,12.4818182 32.4219231,11.9912879 33.1384615,11.9912879 C33.4953846,11.9912879 33.7853846,12.1079545 33.9765385,12.3287879 C34.1692308,12.5511364 34.245,12.8621212 34.19,13.2045455 L34.19,13.2045455 Z" id="Fill-5" fill="#009CDE"></path>
                    <path d="M23.91,10.7939394 L22.6461538,10.7939394 C22.525,10.7939394 22.4123077,10.8530303 22.3442308,10.9515152 L20.6007692,13.480303 L19.8619231,11.0503788 C19.8157692,10.8984848 19.6734615,10.7939394 19.5123077,10.7939394 L18.27,10.7939394 C18.12,10.7939394 18.0146154,10.9393939 18.0626923,11.0791667 L19.4546154,15.1022727 L18.1453846,16.9212121 C18.0426923,17.0640152 18.1465385,17.2613636 18.3242308,17.2613636 L19.5869231,17.2613636 C19.7065385,17.2613636 19.8184615,17.2037879 19.8865385,17.1068182 L24.09,11.1325758 C24.1903846,10.9893939 24.0865385,10.7939394 23.91,10.7939394" id="Fill-6" fill="#003087"></path>
                    <path d="M37.4242308,8.58409091 L36.3465385,15.3367424 C36.3257692,15.4674242 36.4284615,15.5856061 36.5626923,15.5856061 L37.6465385,15.5856061 C37.8261538,15.5856061 37.9788462,15.457197 38.0069231,15.2825758 L39.0696154,8.65113636 C39.0907692,8.52007576 38.9880769,8.40189394 38.8534615,8.40189394 L37.6403846,8.40189394 C37.5326923,8.40189394 37.4411538,8.47916667 37.4242308,8.58409091" id="Fill-7" fill="#009CDE"></path>
                </g>
            </g>
        </g>
    </g>
</svg>