<?xml version="1.0" encoding="UTF-8" standalone="no"?>
<svg width="17px" height="13px" viewBox="0 0 17 13" version="1.1" xmlns="http://www.w3.org/2000/svg" xmlns:xlink="http://www.w3.org/1999/xlink" xmlns:sketch="http://www.bohemiancoding.com/sketch/ns">
    <!-- Generator: Sketch 3.3 (11970) - http://www.bohemiancoding.com/sketch -->
    <title>Fill 132</title>
    <desc>Created with Sketch.</desc>
    <defs></defs>
    <g id="Categories" stroke="none" stroke-width="1" fill="none" fill-rule="evenodd" sketch:type="MSPage">
        <g id="Marketplace" sketch:type="MSArtboardGroup" transform="translate(-583.000000, -3937.000000)" fill="#FFFFFF">
            <g id="Footer" sketch:type="MSLayerGroup" transform="translate(0.000000, 3602.000000)">
                <g id="Fill-250-+-Fill-132-+-Fill-260" transform="translate(583.000000, 309.000000)" sketch:type="MSShapeGroup">
                    <path d="M15.07475,32.2351828 C16.02845,32.1535816 16.67615,31.7103749 16.9252,31.1063658 C16.5818,31.321569 15.5125,31.5599726 14.92345,31.3335692 C14.89285,31.1911671 14.8597,31.056765 14.82825,30.9335632 C14.3803,29.2423377 12.8384,27.8775171 11.22595,28.0431196 C11.35515,27.9879188 11.48775,27.939118 11.62035,27.8927173 C11.79715,27.8287164 12.8401,27.6519137 12.6752,27.277508 C12.53665,26.945503 11.26335,27.5279118 11.0245,27.603913 C11.3407,27.4815111 11.8643,27.272708 11.9187,26.8999023 C11.43505,26.9679034 10.9582,27.2031069 10.59185,27.5447121 C10.7236,27.3975098 10.82475,27.2191072 10.84685,27.0271043 C9.5523,27.874317 8.79665,29.5799428 8.1855,31.2367677 C7.70525,30.7599606 7.27855,30.3839549 6.89775,30.1751517 C5.8259,29.5879429 4.54665,28.9743336 2.5364,28.2103221 C2.47435,28.8903324 2.8645,29.797546 3.98735,30.3991551 C3.74595,30.3647546 3.30055,30.4415558 2.9444,30.5279571 C3.08975,31.3087688 3.5632,31.9519785 4.84755,32.2631832 C4.26105,32.3007838 3.9576,32.4399859 3.6839,32.7335903 C3.9491,33.2767985 4.6019,33.9152081 5.77575,33.7848062 C4.471,34.3608149 5.24365,35.428831 6.30615,35.2696286 C4.49565,37.1864575 1.6405,37.0440553 0,35.4424312 C4.27975,41.4185213 13.58555,38.9760845 14.97105,33.2191976 C16.01145,33.2271978 16.62175,32.8503921 17,32.4351858 C16.40245,32.5399874 15.53545,32.4311858 15.07475,32.2351828 Z" id="Fill-132"></path>
                </g>
            </g>
        </g>
    </g>
</svg>