<?xml version="1.0" encoding="UTF-8" standalone="no"?>
<svg width="45px" height="25px" viewBox="0 0 45 25" version="1.1" xmlns="http://www.w3.org/2000/svg" xmlns:xlink="http://www.w3.org/1999/xlink" xmlns:sketch="http://www.bohemiancoding.com/sketch/ns">
    <!-- Generator: Sketch 3.3 (11970) - http://www.bohemiancoding.com/sketch -->
    <title>Imported Layers</title>
    <desc>Created with Sketch.</desc>
    <defs></defs>
    <g id="Categories" stroke="none" stroke-width="1" fill="none" fill-rule="evenodd" sketch:type="MSPage">
        <g id="Marketplace" sketch:type="MSArtboardGroup" transform="translate(-784.000000, -3852.000000)">
            <g id="Footer" sketch:type="MSLayerGroup" transform="translate(0.000000, 3602.000000)">
                <g id="Imported-Layers" transform="translate(784.000000, 250.000000)" sketch:type="MSShapeGroup">
                    <path d="M0.286923077,0.146969697 L44.8776923,0.146969697 L44.8776923,24.7590909 L0.286923077,24.7590909 L0.286923077,0.146969697 Z" id="Fill-1" fill="#F1F1F2"></path>
                    <path d="M17.2596154,17.2223485 L18.9065385,7.70757576 L21.5392308,7.70757576 L19.8923077,17.2223485 L17.2596154,17.2223485" id="Fill-2" fill="#00589F"></path>
                    <path d="M29.4430769,7.94166667 C28.9215385,7.74848485 28.1042308,7.54204545 27.0830769,7.54204545 C24.4811538,7.54204545 22.6476923,8.83219697 22.6323077,10.6814394 C22.6180769,12.0496212 23.9411538,12.8113636 24.94,13.2670455 C25.9646154,13.7329545 26.3096154,14.0306818 26.3046154,14.4469697 C26.2980769,15.0848485 25.4861538,15.3761364 24.7292308,15.3761364 C23.675,15.3761364 23.1153846,15.232197 22.2503846,14.8768939 L21.9107692,14.7257576 L21.5411538,16.8560606 C22.1569231,17.1212121 23.2934615,17.3515152 24.4746154,17.3636364 C27.2430769,17.3636364 29.0403846,16.0875 29.0607692,14.1128788 C29.0703846,13.0299242 28.3688462,12.2064394 26.85,11.5276515 C25.9292308,11.0875 25.3657692,10.7931818 25.3715385,10.3473485 C25.3715385,9.95265152 25.8484615,9.52916667 26.8792308,9.52916667 C27.7411538,9.51590909 28.3642308,9.70113636 28.8503846,9.89431818 L29.0865385,10.0034091 L29.4430769,7.94166667" id="Fill-3" fill="#00589F"></path>
                    <path d="M36.1965385,7.71666667 L34.1615385,7.71666667 C33.5307692,7.71666667 33.0592308,7.88560606 32.7823077,8.50568182 L28.8711538,17.225 L31.6369231,17.225 C31.6369231,17.225 32.0888462,16.0530303 32.1911538,15.7954545 C32.4934615,15.7954545 35.1796154,15.7996212 35.5638462,15.7996212 C35.6426923,16.132197 35.8838462,17.225 35.8838462,17.225 L38.3276923,17.225 L36.1965385,7.71666667 M32.9488462,13.8496212 C33.1669231,13.3011364 33.9984615,11.1890152 33.9984615,11.1890152 C33.9826923,11.2147727 34.2142308,10.6382576 34.3473077,10.2810606 L34.525,11.1018939 C34.525,11.1018939 35.0296154,13.3727273 35.1353846,13.8496212 L32.9488462,13.8496212" id="Fill-4" fill="#00589F"></path>
                    <path d="M15.0507692,7.71439394 L12.4730769,14.2026515 L12.1980769,12.8840909 C11.7184615,11.3636364 10.2226923,9.71704545 8.55115385,8.89242424 L10.9084615,17.2143939 L13.6946154,17.2106061 L17.8403846,7.71439394 L15.0507692,7.71439394" id="Fill-5" fill="#00589F"></path>
                    <path d="M10.0811538,7.70795455 L5.83461538,7.70795455 L5.80115385,7.90606061 C9.10461538,8.69393939 11.2907692,10.5969697 12.1980769,12.8840909 L11.2746154,8.51136364 C11.1153846,7.90871212 10.6530769,7.72878788 10.0811538,7.70795455" id="Fill-6" fill="#F9A51A"></path>
                </g>
            </g>
        </g>
    </g>
</svg>